<svg width="636" height="577" viewBox="0 0 636 577" fill="none" xmlns="http://www.w3.org/2000/svg">
<circle cx="209" cy="140" r="15.5" fill="#C4C4C4" stroke="black"/>
<circle cx="350" cy="140" r="15.5" fill="#C4C4C4" stroke="black"/>
<circle cx="303" cy="140" r="15.5" fill="#C4C4C4" stroke="black"/>
<circle cx="256" cy="140" r="15.5" fill="#C4C4C4" stroke="black"/>
<circle cx="397" cy="140" r="15.5" fill="#FF8383" stroke="black"/>
<circle cx="447" cy="140" r="15.5" fill="#FF8383" stroke="black"/>
<line x1="225" y1="139.5" x2="240" y2="139.5" stroke="black"/>
<line x1="287" y1="140.5" x2="272" y2="140.5" stroke="black"/>
<line x1="319" y1="139.5" x2="334" y2="139.5" stroke="black"/>
<line x1="366" y1="139.5" x2="381" y2="139.5" stroke="black"/>
<line x1="413" y1="139.5" x2="431" y2="139.5" stroke="black"/>
<circle cx="397" cy="194" r="15.5" fill="#8EA0FF" stroke="black"/>
<circle cx="497" cy="194" r="15.5" fill="#8EA0FF" stroke="black"/>
<circle cx="447" cy="194" r="15.5" fill="#8EA0FF" stroke="black"/>
<circle cx="550" cy="140" r="15.5" fill="#B2FF8E" stroke="black"/>
<path d="M349.982 155L349.982 159.279C349.982 177.347 363.147 192.721 381 195.5V195.5" stroke="black"/>
<line x1="412" y1="193.5" x2="431" y2="193.5" stroke="black"/>
<line x1="463" y1="193.5" x2="481" y2="193.5" stroke="black"/>
<circle cx="209" cy="16" r="15.5" fill="#C4C4C4" stroke="black"/>
<circle cx="350" cy="16" r="15.5" fill="#C4C4C4" stroke="black"/>
<circle cx="303" cy="16" r="15.5" fill="#C4C4C4" stroke="black"/>
<circle cx="256" cy="16" r="15.5" fill="#C4C4C4" stroke="black"/>
<circle cx="397" cy="16" r="15.5" fill="#FF8383" stroke="black"/>
<circle cx="447" cy="16" r="15.5" fill="#FF8383" stroke="black"/>
<line x1="225" y1="15.5" x2="240" y2="15.5" stroke="black"/>
<line x1="287" y1="16.5" x2="272" y2="16.5" stroke="black"/>
<line x1="319" y1="15.5" x2="334" y2="15.5" stroke="black"/>
<line x1="366" y1="15.5" x2="381" y2="15.5" stroke="black"/>
<line x1="413" y1="15.5" x2="431" y2="15.5" stroke="black"/>
<circle cx="397" cy="70" r="15.5" fill="#8EA0FF" stroke="black"/>
<circle cx="497" cy="70" r="15.5" fill="#8EA0FF" stroke="black"/>
<circle cx="447" cy="70" r="15.5" fill="#8EA0FF" stroke="black"/>
<path d="M349.982 31L349.982 35.279C349.982 53.3471 363.147 68.7206 381 71.5V71.5" stroke="black"/>
<line x1="412" y1="69.5" x2="431" y2="69.5" stroke="black"/>
<line x1="463" y1="69.5" x2="481" y2="69.5" stroke="black"/>
<line x1="461.993" y1="140.5" x2="533.993" y2="139.5" stroke="black"/>
<path d="M515.646 69.6464C515.451 69.8417 515.451 70.1583 515.646 70.3536L518.828 73.5355C519.024 73.7308 519.34 73.7308 519.536 73.5355C519.731 73.3403 519.731 73.0237 519.536 72.8284L516.707 70L519.536 67.1716C519.731 66.9763 519.731 66.6597 519.536 66.4645C519.34 66.2692 519.024 66.2692 518.828 66.4645L515.646 69.6464ZM552 69.5L516 69.5L516 70.5L552 70.5L552 69.5Z" fill="black"/>
<path d="M554.557 70.7773C554.557 69.8047 554.787 69.0234 555.248 68.4336C555.709 67.8398 556.312 67.543 557.059 67.543C557.801 67.543 558.389 67.7969 558.822 68.3047V65H559.906V74H558.91L558.857 73.3203C558.424 73.8516 557.82 74.1172 557.047 74.1172C556.312 74.1172 555.713 73.8164 555.248 73.2148C554.787 72.6133 554.557 71.8281 554.557 70.8594V70.7773ZM555.641 70.9004C555.641 71.6191 555.789 72.1816 556.086 72.5879C556.383 72.9941 556.793 73.1973 557.316 73.1973C558.004 73.1973 558.506 72.8887 558.822 72.2715V69.3594C558.498 68.7617 558 68.4629 557.328 68.4629C556.797 68.4629 556.383 68.668 556.086 69.0781C555.789 69.4883 555.641 70.0957 555.641 70.9004ZM564.225 74.1172C563.365 74.1172 562.666 73.8359 562.127 73.2734C561.588 72.707 561.318 71.9512 561.318 71.0059V70.8066C561.318 70.1777 561.438 69.6172 561.676 69.125C561.918 68.6289 562.254 68.2422 562.684 67.9648C563.117 67.6836 563.586 67.543 564.09 67.543C564.914 67.543 565.555 67.8145 566.012 68.3574C566.469 68.9004 566.697 69.6777 566.697 70.6895V71.1406H562.402C562.418 71.7656 562.6 72.2715 562.947 72.6582C563.299 73.041 563.744 73.2324 564.283 73.2324C564.666 73.2324 564.99 73.1543 565.256 72.998C565.521 72.8418 565.754 72.6348 565.953 72.377L566.615 72.8926C566.084 73.709 565.287 74.1172 564.225 74.1172ZM564.09 68.4336C563.652 68.4336 563.285 68.5938 562.988 68.9141C562.691 69.2305 562.508 69.6758 562.438 70.25H565.613V70.168C565.582 69.6172 565.434 69.1914 565.168 68.8906C564.902 68.5859 564.543 68.4336 564.09 68.4336ZM569.967 72.5293L571.537 67.6602H572.645L570.371 74H569.545L567.248 67.6602H568.355L569.967 72.5293ZM576.236 74.1172C575.377 74.1172 574.678 73.8359 574.139 73.2734C573.6 72.707 573.33 71.9512 573.33 71.0059V70.8066C573.33 70.1777 573.449 69.6172 573.688 69.125C573.93 68.6289 574.266 68.2422 574.695 67.9648C575.129 67.6836 575.598 67.543 576.102 67.543C576.926 67.543 577.566 67.8145 578.023 68.3574C578.48 68.9004 578.709 69.6777 578.709 70.6895V71.1406H574.414C574.43 71.7656 574.611 72.2715 574.959 72.6582C575.311 73.041 575.756 73.2324 576.295 73.2324C576.678 73.2324 577.002 73.1543 577.268 72.998C577.533 72.8418 577.766 72.6348 577.965 72.377L578.627 72.8926C578.096 73.709 577.299 74.1172 576.236 74.1172ZM576.102 68.4336C575.664 68.4336 575.297 68.5938 575 68.9141C574.703 69.2305 574.52 69.6758 574.449 70.25H577.625V70.168C577.594 69.6172 577.445 69.1914 577.18 68.8906C576.914 68.5859 576.555 68.4336 576.102 68.4336ZM581.146 74H580.062V65H581.146V74ZM582.6 70.7715C582.6 70.1504 582.721 69.5918 582.963 69.0957C583.209 68.5996 583.549 68.2168 583.982 67.9473C584.42 67.6777 584.918 67.543 585.477 67.543C586.34 67.543 587.037 67.8418 587.568 68.4395C588.104 69.0371 588.371 69.832 588.371 70.8242V70.9004C588.371 71.5176 588.252 72.0723 588.014 72.5645C587.779 73.0527 587.441 73.4336 587 73.707C586.562 73.9805 586.059 74.1172 585.488 74.1172C584.629 74.1172 583.932 73.8184 583.396 73.2207C582.865 72.623 582.6 71.832 582.6 70.8477V70.7715ZM583.689 70.9004C583.689 71.6035 583.852 72.168 584.176 72.5938C584.504 73.0195 584.941 73.2324 585.488 73.2324C586.039 73.2324 586.477 73.0176 586.801 72.5879C587.125 72.1543 587.287 71.5488 587.287 70.7715C587.287 70.0762 587.121 69.5137 586.789 69.084C586.461 68.6504 586.023 68.4336 585.477 68.4336C584.941 68.4336 584.51 68.6465 584.182 69.0723C583.854 69.498 583.689 70.1074 583.689 70.9004ZM595.086 70.9004C595.086 71.8652 594.865 72.6426 594.424 73.2324C593.982 73.8223 593.385 74.1172 592.631 74.1172C591.861 74.1172 591.256 73.873 590.814 73.3848V76.4375H589.73V67.6602H590.721L590.773 68.3633C591.215 67.8164 591.828 67.543 592.613 67.543C593.375 67.543 593.977 67.8301 594.418 68.4043C594.863 68.9785 595.086 69.7773 595.086 70.8008V70.9004ZM594.002 70.7773C594.002 70.0625 593.85 69.498 593.545 69.084C593.24 68.6699 592.822 68.4629 592.291 68.4629C591.635 68.4629 591.143 68.7539 590.814 69.3359V72.3652C591.139 72.9434 591.635 73.2324 592.303 73.2324C592.822 73.2324 593.234 73.0273 593.539 72.6172C593.848 72.2031 594.002 71.5898 594.002 70.7773Z" fill="black"/>
<path d="M464.646 15.6464C464.451 15.8417 464.451 16.1583 464.646 16.3536L467.828 19.5355C468.024 19.7308 468.34 19.7308 468.536 19.5355C468.731 19.3403 468.731 19.0237 468.536 18.8284L465.707 16L468.536 13.1716C468.731 12.9763 468.731 12.6597 468.536 12.4645C468.34 12.2692 468.024 12.2692 467.828 12.4645L464.646 15.6464ZM501 15.5L465 15.5L465 16.5L501 16.5L501 15.5Z" fill="black"/>
<path d="M504.84 13.6602L504.869 14.3633C505.334 13.8164 505.961 13.543 506.75 13.543C507.637 13.543 508.24 13.8828 508.561 14.5625C508.771 14.2578 509.045 14.0117 509.381 13.8242C509.721 13.6367 510.121 13.543 510.582 13.543C511.973 13.543 512.68 14.2793 512.703 15.752V20H511.619V15.8164C511.619 15.3633 511.516 15.0254 511.309 14.8027C511.102 14.5762 510.754 14.4629 510.266 14.4629C509.863 14.4629 509.529 14.584 509.264 14.8262C508.998 15.0645 508.844 15.3867 508.801 15.793V20H507.711V15.8457C507.711 14.9238 507.26 14.4629 506.357 14.4629C505.646 14.4629 505.16 14.7656 504.898 15.3711V20H503.814V13.6602H504.84ZM518.258 20C518.195 19.875 518.145 19.6523 518.105 19.332C517.602 19.8555 517 20.1172 516.301 20.1172C515.676 20.1172 515.162 19.9414 514.76 19.5898C514.361 19.2344 514.162 18.7852 514.162 18.2422C514.162 17.582 514.412 17.0703 514.912 16.707C515.416 16.3398 516.123 16.1562 517.033 16.1562H518.088V15.6582C518.088 15.2793 517.975 14.9785 517.748 14.7559C517.521 14.5293 517.188 14.416 516.746 14.416C516.359 14.416 516.035 14.5137 515.773 14.709C515.512 14.9043 515.381 15.1406 515.381 15.418H514.291C514.291 15.1016 514.402 14.7969 514.625 14.5039C514.852 14.207 515.156 13.9727 515.539 13.8008C515.926 13.6289 516.35 13.543 516.811 13.543C517.541 13.543 518.113 13.7266 518.527 14.0938C518.941 14.457 519.156 14.959 519.172 15.5996V18.5176C519.172 19.0996 519.246 19.5625 519.395 19.9062V20H518.258ZM516.459 19.1738C516.799 19.1738 517.121 19.0859 517.426 18.9102C517.73 18.7344 517.951 18.5059 518.088 18.2246V16.9238H517.238C515.91 16.9238 515.246 17.3125 515.246 18.0898C515.246 18.4297 515.359 18.6953 515.586 18.8867C515.812 19.0781 516.104 19.1738 516.459 19.1738ZM522.049 20H520.965V13.6602H522.049V20ZM520.877 11.9785C520.877 11.8027 520.93 11.6543 521.035 11.5332C521.145 11.4121 521.305 11.3516 521.516 11.3516C521.727 11.3516 521.887 11.4121 521.996 11.5332C522.105 11.6543 522.16 11.8027 522.16 11.9785C522.16 12.1543 522.105 12.3008 521.996 12.418C521.887 12.5352 521.727 12.5938 521.516 12.5938C521.305 12.5938 521.145 12.5352 521.035 12.418C520.93 12.3008 520.877 12.1543 520.877 11.9785ZM524.814 13.6602L524.85 14.457C525.334 13.8477 525.967 13.543 526.748 13.543C528.088 13.543 528.764 14.2988 528.775 15.8105V20H527.691V15.8047C527.688 15.3477 527.582 15.0098 527.375 14.791C527.172 14.5723 526.854 14.4629 526.42 14.4629C526.068 14.4629 525.76 14.5566 525.494 14.7441C525.229 14.9316 525.021 15.1777 524.873 15.4824V20H523.789V13.6602H524.814Z" fill="black"/>
<path d="M570.646 139.646C570.451 139.842 570.451 140.158 570.646 140.354L573.828 143.536C574.024 143.731 574.34 143.731 574.536 143.536C574.731 143.34 574.731 143.024 574.536 142.828L571.707 140L574.536 137.172C574.731 136.976 574.731 136.66 574.536 136.464C574.34 136.269 574.024 136.269 573.828 136.464L570.646 139.646ZM607 139.5L571 139.5L571 140.5L607 140.5L607 139.5Z" fill="black"/>
<path d="M610.84 137.66L610.869 138.363C611.334 137.816 611.961 137.543 612.75 137.543C613.637 137.543 614.24 137.883 614.561 138.562C614.771 138.258 615.045 138.012 615.381 137.824C615.721 137.637 616.121 137.543 616.582 137.543C617.973 137.543 618.68 138.279 618.703 139.752V144H617.619V139.816C617.619 139.363 617.516 139.025 617.309 138.803C617.102 138.576 616.754 138.463 616.266 138.463C615.863 138.463 615.529 138.584 615.264 138.826C614.998 139.064 614.844 139.387 614.801 139.793V144H613.711V139.846C613.711 138.924 613.26 138.463 612.357 138.463C611.646 138.463 611.16 138.766 610.898 139.371V144H609.814V137.66H610.84ZM624.258 144C624.195 143.875 624.145 143.652 624.105 143.332C623.602 143.855 623 144.117 622.301 144.117C621.676 144.117 621.162 143.941 620.76 143.59C620.361 143.234 620.162 142.785 620.162 142.242C620.162 141.582 620.412 141.07 620.912 140.707C621.416 140.34 622.123 140.156 623.033 140.156H624.088V139.658C624.088 139.279 623.975 138.979 623.748 138.756C623.521 138.529 623.188 138.416 622.746 138.416C622.359 138.416 622.035 138.514 621.773 138.709C621.512 138.904 621.381 139.141 621.381 139.418H620.291C620.291 139.102 620.402 138.797 620.625 138.504C620.852 138.207 621.156 137.973 621.539 137.801C621.926 137.629 622.35 137.543 622.811 137.543C623.541 137.543 624.113 137.727 624.527 138.094C624.941 138.457 625.156 138.959 625.172 139.6V142.518C625.172 143.1 625.246 143.562 625.395 143.906V144H624.258ZM622.459 143.174C622.799 143.174 623.121 143.086 623.426 142.91C623.73 142.734 623.951 142.506 624.088 142.225V140.924H623.238C621.91 140.924 621.246 141.312 621.246 142.09C621.246 142.43 621.359 142.695 621.586 142.887C621.812 143.078 622.104 143.174 622.459 143.174ZM628.049 144H626.965V137.66H628.049V144ZM626.877 135.979C626.877 135.803 626.93 135.654 627.035 135.533C627.145 135.412 627.305 135.352 627.516 135.352C627.727 135.352 627.887 135.412 627.996 135.533C628.105 135.654 628.16 135.803 628.16 135.979C628.16 136.154 628.105 136.301 627.996 136.418C627.887 136.535 627.727 136.594 627.516 136.594C627.305 136.594 627.145 136.535 627.035 136.418C626.93 136.301 626.877 136.154 626.877 135.979ZM630.814 137.66L630.85 138.457C631.334 137.848 631.967 137.543 632.748 137.543C634.088 137.543 634.764 138.299 634.775 139.811V144H633.691V139.805C633.688 139.348 633.582 139.01 633.375 138.791C633.172 138.572 632.854 138.463 632.42 138.463C632.068 138.463 631.76 138.557 631.494 138.744C631.229 138.932 631.021 139.178 630.873 139.482V144H629.789V137.66H630.814Z" fill="black"/>
<line x1="0.0311891" y1="575.157" x2="16.0312" y2="576.157" stroke="black"/>
<path d="M555.362 151L555.362 158C555.363 176.225 540.588 191 522.363 191L517.362 191" stroke="black"/>
<path d="M160.335 33.9616L159.941 33.6541L159.941 33.6541L160.335 33.9616ZM158.929 123.099L159.333 122.804L159.333 122.804L158.929 123.099ZM171.923 141.494C172.196 141.537 172.451 141.35 172.494 141.077L173.187 136.631C173.23 136.358 173.043 136.102 172.771 136.06C172.498 136.017 172.242 136.204 172.199 136.477L171.583 140.429L167.631 139.813C167.358 139.77 167.102 139.957 167.06 140.229C167.017 140.502 167.204 140.758 167.477 140.801L171.923 141.494ZM171.606 18.6926L159.941 33.6541L160.729 34.269L172.394 19.3074L171.606 18.6926ZM158.526 123.394L171.596 141.295L172.404 140.705L159.333 122.804L158.526 123.394ZM159.941 33.6541C139.482 59.8949 138.904 96.5211 158.526 123.394L159.333 122.804C139.975 96.2921 140.545 60.1576 160.729 34.269L159.941 33.6541Z" fill="black"/>
<path d="M170.562 83.7773C170.562 82.7891 170.791 82.0039 171.248 81.4219C171.705 80.8359 172.311 80.543 173.064 80.543C173.838 80.543 174.441 80.8164 174.875 81.3633L174.928 80.6602H175.918V86.8477C175.918 87.668 175.674 88.3145 175.186 88.7871C174.701 89.2598 174.049 89.4961 173.229 89.4961C172.771 89.4961 172.324 89.3984 171.887 89.2031C171.449 89.0078 171.115 88.7402 170.885 88.4004L171.447 87.75C171.912 88.3242 172.48 88.6113 173.152 88.6113C173.68 88.6113 174.09 88.4629 174.383 88.166C174.68 87.8691 174.828 87.4512 174.828 86.9121V86.3672C174.395 86.8672 173.803 87.1172 173.053 87.1172C172.311 87.1172 171.709 86.8184 171.248 86.2207C170.791 85.623 170.562 84.8086 170.562 83.7773ZM171.652 83.9004C171.652 84.6152 171.799 85.1777 172.092 85.5879C172.385 85.9941 172.795 86.1973 173.322 86.1973C174.006 86.1973 174.508 85.8867 174.828 85.2656V82.3711C174.496 81.7656 173.998 81.4629 173.334 81.4629C172.807 81.4629 172.395 81.668 172.098 82.0781C171.801 82.4883 171.652 83.0957 171.652 83.9004ZM178.736 87H177.652V80.6602H178.736V87ZM177.564 78.9785C177.564 78.8027 177.617 78.6543 177.723 78.5332C177.832 78.4121 177.992 78.3516 178.203 78.3516C178.414 78.3516 178.574 78.4121 178.684 78.5332C178.793 78.6543 178.848 78.8027 178.848 78.9785C178.848 79.1543 178.793 79.3008 178.684 79.418C178.574 79.5352 178.414 79.5938 178.203 79.5938C177.992 79.5938 177.832 79.5352 177.723 79.418C177.617 79.3008 177.564 79.1543 177.564 78.9785ZM181.947 79.125V80.6602H183.131V81.498H181.947V85.4297C181.947 85.6836 182 85.875 182.105 86.0039C182.211 86.1289 182.391 86.1914 182.645 86.1914C182.77 86.1914 182.941 86.168 183.16 86.1211V87C182.875 87.0781 182.598 87.1172 182.328 87.1172C181.844 87.1172 181.479 86.9707 181.232 86.6777C180.986 86.3848 180.863 85.9688 180.863 85.4297V81.498H179.709V80.6602H180.863V79.125H181.947ZM188.398 80.6602L188.428 81.3633C188.893 80.8164 189.52 80.543 190.309 80.543C191.195 80.543 191.799 80.8828 192.119 81.5625C192.33 81.2578 192.604 81.0117 192.939 80.8242C193.279 80.6367 193.68 80.543 194.141 80.543C195.531 80.543 196.238 81.2793 196.262 82.752V87H195.178V82.8164C195.178 82.3633 195.074 82.0254 194.867 81.8027C194.66 81.5762 194.312 81.4629 193.824 81.4629C193.422 81.4629 193.088 81.584 192.822 81.8262C192.557 82.0645 192.402 82.3867 192.359 82.793V87H191.27V82.8457C191.27 81.9238 190.818 81.4629 189.916 81.4629C189.205 81.4629 188.719 81.7656 188.457 82.3711V87H187.373V80.6602H188.398ZM200.533 87.1172C199.674 87.1172 198.975 86.8359 198.436 86.2734C197.896 85.707 197.627 84.9512 197.627 84.0059V83.8066C197.627 83.1777 197.746 82.6172 197.984 82.125C198.227 81.6289 198.562 81.2422 198.992 80.9648C199.426 80.6836 199.895 80.543 200.398 80.543C201.223 80.543 201.863 80.8145 202.32 81.3574C202.777 81.9004 203.006 82.6777 203.006 83.6895V84.1406H198.711C198.727 84.7656 198.908 85.2715 199.256 85.6582C199.607 86.041 200.053 86.2324 200.592 86.2324C200.975 86.2324 201.299 86.1543 201.564 85.998C201.83 85.8418 202.062 85.6348 202.262 85.377L202.924 85.8926C202.393 86.709 201.596 87.1172 200.533 87.1172ZM200.398 81.4336C199.961 81.4336 199.594 81.5938 199.297 81.9141C199 82.2305 198.816 82.6758 198.746 83.25H201.922V83.168C201.891 82.6172 201.742 82.1914 201.477 81.8906C201.211 81.5859 200.852 81.4336 200.398 81.4336ZM207.33 81.6328C207.166 81.6055 206.988 81.5918 206.797 81.5918C206.086 81.5918 205.604 81.8945 205.35 82.5V87H204.266V80.6602H205.32L205.338 81.3926C205.693 80.8262 206.197 80.543 206.85 80.543C207.061 80.543 207.221 80.5703 207.33 80.625V81.6328ZM207.957 83.7773C207.957 82.7891 208.186 82.0039 208.643 81.4219C209.1 80.8359 209.705 80.543 210.459 80.543C211.232 80.543 211.836 80.8164 212.27 81.3633L212.322 80.6602H213.312V86.8477C213.312 87.668 213.068 88.3145 212.58 88.7871C212.096 89.2598 211.443 89.4961 210.623 89.4961C210.166 89.4961 209.719 89.3984 209.281 89.2031C208.844 89.0078 208.51 88.7402 208.279 88.4004L208.842 87.75C209.307 88.3242 209.875 88.6113 210.547 88.6113C211.074 88.6113 211.484 88.4629 211.777 88.166C212.074 87.8691 212.223 87.4512 212.223 86.9121V86.3672C211.789 86.8672 211.197 87.1172 210.447 87.1172C209.705 87.1172 209.104 86.8184 208.643 86.2207C208.186 85.623 207.957 84.8086 207.957 83.7773ZM209.047 83.9004C209.047 84.6152 209.193 85.1777 209.486 85.5879C209.779 85.9941 210.189 86.1973 210.717 86.1973C211.4 86.1973 211.902 85.8867 212.223 85.2656V82.3711C211.891 81.7656 211.393 81.4629 210.729 81.4629C210.201 81.4629 209.789 81.668 209.492 82.0781C209.195 82.4883 209.047 83.0957 209.047 83.9004ZM217.584 87.1172C216.725 87.1172 216.025 86.8359 215.486 86.2734C214.947 85.707 214.678 84.9512 214.678 84.0059V83.8066C214.678 83.1777 214.797 82.6172 215.035 82.125C215.277 81.6289 215.613 81.2422 216.043 80.9648C216.477 80.6836 216.945 80.543 217.449 80.543C218.273 80.543 218.914 80.8145 219.371 81.3574C219.828 81.9004 220.057 82.6777 220.057 83.6895V84.1406H215.762C215.777 84.7656 215.959 85.2715 216.307 85.6582C216.658 86.041 217.104 86.2324 217.643 86.2324C218.025 86.2324 218.35 86.1543 218.615 85.998C218.881 85.8418 219.113 85.6348 219.312 85.377L219.975 85.8926C219.443 86.709 218.646 87.1172 217.584 87.1172ZM217.449 81.4336C217.012 81.4336 216.645 81.5938 216.348 81.9141C216.051 82.2305 215.867 82.6758 215.797 83.25H218.973V83.168C218.941 82.6172 218.793 82.1914 218.527 81.8906C218.262 81.5859 217.902 81.4336 217.449 81.4336ZM224.029 83.7773C224.029 82.8047 224.26 82.0234 224.721 81.4336C225.182 80.8398 225.785 80.543 226.531 80.543C227.273 80.543 227.861 80.7969 228.295 81.3047V78H229.379V87H228.383L228.33 86.3203C227.896 86.8516 227.293 87.1172 226.52 87.1172C225.785 87.1172 225.186 86.8164 224.721 86.2148C224.26 85.6133 224.029 84.8281 224.029 83.8594V83.7773ZM225.113 83.9004C225.113 84.6191 225.262 85.1816 225.559 85.5879C225.855 85.9941 226.266 86.1973 226.789 86.1973C227.477 86.1973 227.979 85.8887 228.295 85.2715V82.3594C227.971 81.7617 227.473 81.4629 226.801 81.4629C226.27 81.4629 225.855 81.668 225.559 82.0781C225.262 82.4883 225.113 83.0957 225.113 83.9004ZM233.697 87.1172C232.838 87.1172 232.139 86.8359 231.6 86.2734C231.061 85.707 230.791 84.9512 230.791 84.0059V83.8066C230.791 83.1777 230.91 82.6172 231.148 82.125C231.391 81.6289 231.727 81.2422 232.156 80.9648C232.59 80.6836 233.059 80.543 233.562 80.543C234.387 80.543 235.027 80.8145 235.484 81.3574C235.941 81.9004 236.17 82.6777 236.17 83.6895V84.1406H231.875C231.891 84.7656 232.072 85.2715 232.42 85.6582C232.771 86.041 233.217 86.2324 233.756 86.2324C234.139 86.2324 234.463 86.1543 234.729 85.998C234.994 85.8418 235.227 85.6348 235.426 85.377L236.088 85.8926C235.557 86.709 234.76 87.1172 233.697 87.1172ZM233.562 81.4336C233.125 81.4336 232.758 81.5938 232.461 81.9141C232.164 82.2305 231.98 82.6758 231.91 83.25H235.086V83.168C235.055 82.6172 234.906 82.1914 234.641 81.8906C234.375 81.5859 234.016 81.4336 233.562 81.4336ZM239.439 85.5293L241.01 80.6602H242.117L239.844 87H239.018L236.721 80.6602H237.828L239.439 85.5293ZM245.709 87.1172C244.85 87.1172 244.15 86.8359 243.611 86.2734C243.072 85.707 242.803 84.9512 242.803 84.0059V83.8066C242.803 83.1777 242.922 82.6172 243.16 82.125C243.402 81.6289 243.738 81.2422 244.168 80.9648C244.602 80.6836 245.07 80.543 245.574 80.543C246.398 80.543 247.039 80.8145 247.496 81.3574C247.953 81.9004 248.182 82.6777 248.182 83.6895V84.1406H243.887C243.902 84.7656 244.084 85.2715 244.432 85.6582C244.783 86.041 245.229 86.2324 245.768 86.2324C246.15 86.2324 246.475 86.1543 246.74 85.998C247.006 85.8418 247.238 85.6348 247.438 85.377L248.1 85.8926C247.568 86.709 246.771 87.1172 245.709 87.1172ZM245.574 81.4336C245.137 81.4336 244.77 81.5938 244.473 81.9141C244.176 82.2305 243.992 82.6758 243.922 83.25H247.098V83.168C247.066 82.6172 246.918 82.1914 246.652 81.8906C246.387 81.5859 246.027 81.4336 245.574 81.4336ZM250.619 87H249.535V78H250.619V87ZM252.072 83.7715C252.072 83.1504 252.193 82.5918 252.436 82.0957C252.682 81.5996 253.021 81.2168 253.455 80.9473C253.893 80.6777 254.391 80.543 254.949 80.543C255.812 80.543 256.51 80.8418 257.041 81.4395C257.576 82.0371 257.844 82.832 257.844 83.8242V83.9004C257.844 84.5176 257.725 85.0723 257.486 85.5645C257.252 86.0527 256.914 86.4336 256.473 86.707C256.035 86.9805 255.531 87.1172 254.961 87.1172C254.102 87.1172 253.404 86.8184 252.869 86.2207C252.338 85.623 252.072 84.832 252.072 83.8477V83.7715ZM253.162 83.9004C253.162 84.6035 253.324 85.168 253.648 85.5938C253.977 86.0195 254.414 86.2324 254.961 86.2324C255.512 86.2324 255.949 86.0176 256.273 85.5879C256.598 85.1543 256.76 84.5488 256.76 83.7715C256.76 83.0762 256.594 82.5137 256.262 82.084C255.934 81.6504 255.496 81.4336 254.949 81.4336C254.414 81.4336 253.982 81.6465 253.654 82.0723C253.326 82.498 253.162 83.1074 253.162 83.9004ZM264.559 83.9004C264.559 84.8652 264.338 85.6426 263.896 86.2324C263.455 86.8223 262.857 87.1172 262.104 87.1172C261.334 87.1172 260.729 86.873 260.287 86.3848V89.4375H259.203V80.6602H260.193L260.246 81.3633C260.688 80.8164 261.301 80.543 262.086 80.543C262.848 80.543 263.449 80.8301 263.891 81.4043C264.336 81.9785 264.559 82.7773 264.559 83.8008V83.9004ZM263.475 83.7773C263.475 83.0625 263.322 82.498 263.018 82.084C262.713 81.6699 262.295 81.4629 261.764 81.4629C261.107 81.4629 260.615 81.7539 260.287 82.3359V85.3652C260.611 85.9434 261.107 86.2324 261.775 86.2324C262.295 86.2324 262.707 86.0273 263.012 85.6172C263.32 85.2031 263.475 84.5898 263.475 83.7773Z" fill="black"/>
</svg>
