<svg width="339" height="200" viewBox="0 0 339 200" fill="none" xmlns="http://www.w3.org/2000/svg">
<circle cx="16" cy="65" r="15.5" fill="#C4C4C4" stroke="black"/>
<circle cx="157" cy="65" r="15.5" fill="#C4C4C4" stroke="black"/>
<circle cx="110" cy="65" r="15.5" fill="#C4C4C4" stroke="black"/>
<circle cx="63" cy="65" r="15.5" fill="#C4C4C4" stroke="black"/>
<path d="M54.5566 65.7773C54.5566 64.8047 54.7871 64.0234 55.248 63.4336C55.709 62.8398 56.3125 62.543 57.0586 62.543C57.8008 62.543 58.3887 62.7969 58.8223 63.3047V60H59.9062V69H58.9102L58.8574 68.3203C58.4238 68.8516 57.8203 69.1172 57.0469 69.1172C56.3125 69.1172 55.7129 68.8164 55.248 68.2148C54.7871 67.6133 54.5566 66.8281 54.5566 65.8594V65.7773ZM55.6406 65.9004C55.6406 66.6191 55.7891 67.1816 56.0859 67.5879C56.3828 67.9941 56.793 68.1973 57.3164 68.1973C58.0039 68.1973 58.5059 67.8887 58.8223 67.2715V64.3594C58.498 63.7617 58 63.4629 57.3281 63.4629C56.7969 63.4629 56.3828 63.668 56.0859 64.0781C55.7891 64.4883 55.6406 65.0957 55.6406 65.9004ZM64.2246 69.1172C63.3652 69.1172 62.666 68.8359 62.127 68.2734C61.5879 67.707 61.3184 66.9512 61.3184 66.0059V65.8066C61.3184 65.1777 61.4375 64.6172 61.6758 64.125C61.918 63.6289 62.2539 63.2422 62.6836 62.9648C63.1172 62.6836 63.5859 62.543 64.0898 62.543C64.9141 62.543 65.5547 62.8145 66.0117 63.3574C66.4688 63.9004 66.6973 64.6777 66.6973 65.6895V66.1406H62.4023C62.418 66.7656 62.5996 67.2715 62.9473 67.6582C63.2988 68.041 63.7441 68.2324 64.2832 68.2324C64.666 68.2324 64.9902 68.1543 65.2559 67.998C65.5215 67.8418 65.7539 67.6348 65.9531 67.377L66.6152 67.8926C66.084 68.709 65.2871 69.1172 64.2246 69.1172ZM64.0898 63.4336C63.6523 63.4336 63.2852 63.5938 62.9883 63.9141C62.6914 64.2305 62.5078 64.6758 62.4375 65.25H65.6133V65.168C65.582 64.6172 65.4336 64.1914 65.168 63.8906C64.9023 63.5859 64.543 63.4336 64.0898 63.4336ZM68.4902 69V63.498H67.4883V62.6602H68.4902V62.0098C68.4902 61.3301 68.6719 60.8047 69.0352 60.4336C69.3984 60.0625 69.9121 59.877 70.5762 59.877C70.8262 59.877 71.0742 59.9102 71.3203 59.9766L71.2617 60.8555C71.0781 60.8203 70.8828 60.8027 70.6758 60.8027C70.3242 60.8027 70.0527 60.9062 69.8613 61.1133C69.6699 61.3164 69.5742 61.6094 69.5742 61.9922V62.6602H70.9277V63.498H69.5742V69H68.4902Z" fill="black"/>
<path d="M102.562 65.7773C102.562 64.7891 102.791 64.0039 103.248 63.4219C103.705 62.8359 104.311 62.543 105.064 62.543C105.838 62.543 106.441 62.8164 106.875 63.3633L106.928 62.6602H107.918V68.8477C107.918 69.668 107.674 70.3145 107.186 70.7871C106.701 71.2598 106.049 71.4961 105.229 71.4961C104.771 71.4961 104.324 71.3984 103.887 71.2031C103.449 71.0078 103.115 70.7402 102.885 70.4004L103.447 69.75C103.912 70.3242 104.48 70.6113 105.152 70.6113C105.68 70.6113 106.09 70.4629 106.383 70.166C106.68 69.8691 106.828 69.4512 106.828 68.9121V68.3672C106.395 68.8672 105.803 69.1172 105.053 69.1172C104.311 69.1172 103.709 68.8184 103.248 68.2207C102.791 67.623 102.562 66.8086 102.562 65.7773ZM103.652 65.9004C103.652 66.6152 103.799 67.1777 104.092 67.5879C104.385 67.9941 104.795 68.1973 105.322 68.1973C106.006 68.1973 106.508 67.8867 106.828 67.2656V64.3711C106.496 63.7656 105.998 63.4629 105.334 63.4629C104.807 63.4629 104.395 63.668 104.098 64.0781C103.801 64.4883 103.652 65.0957 103.652 65.9004ZM110.643 63.4277C111.123 62.8379 111.748 62.543 112.518 62.543C113.857 62.543 114.533 63.2988 114.545 64.8105V69H113.461V64.8047C113.457 64.3477 113.352 64.0098 113.145 63.791C112.941 63.5723 112.623 63.4629 112.189 63.4629C111.838 63.4629 111.529 63.5566 111.264 63.7441C110.998 63.9316 110.791 64.1777 110.643 64.4824V69H109.559V60H110.643V63.4277ZM117.346 69H116.262V62.6602H117.346V69ZM116.174 60.9785C116.174 60.8027 116.227 60.6543 116.332 60.5332C116.441 60.4121 116.602 60.3516 116.812 60.3516C117.023 60.3516 117.184 60.4121 117.293 60.5332C117.402 60.6543 117.457 60.8027 117.457 60.9785C117.457 61.1543 117.402 61.3008 117.293 61.418C117.184 61.5352 117.023 61.5938 116.812 61.5938C116.602 61.5938 116.441 61.5352 116.332 61.418C116.227 61.3008 116.174 61.1543 116.174 60.9785Z" fill="black"/>
<path d="M153.939 62.6602V69.7324C153.939 70.9512 153.387 71.5605 152.281 71.5605C152.043 71.5605 151.822 71.5254 151.619 71.4551V70.5879C151.744 70.6191 151.908 70.6348 152.111 70.6348C152.354 70.6348 152.537 70.5684 152.662 70.4355C152.791 70.3066 152.855 70.0801 152.855 69.7559V62.6602H153.939ZM152.744 60.9785C152.744 60.8066 152.797 60.6602 152.902 60.5391C153.012 60.4141 153.17 60.3516 153.377 60.3516C153.588 60.3516 153.748 60.4121 153.857 60.5332C153.967 60.6543 154.021 60.8027 154.021 60.9785C154.021 61.1543 153.967 61.3008 153.857 61.418C153.748 61.5352 153.588 61.5938 153.377 61.5938C153.166 61.5938 153.008 61.5352 152.902 61.418C152.797 61.3008 152.744 61.1543 152.744 60.9785ZM157.461 66.0645L156.781 66.7734V69H155.697V60H156.781V65.4434L157.361 64.7461L159.336 62.6602H160.654L158.188 65.3086L160.941 69H159.67L157.461 66.0645ZM162.951 69H161.867V60H162.951V69Z" fill="black"/>
<circle cx="204" cy="65" r="15.5" fill="#FF8383" stroke="black"/>
<line x1="32" y1="64.5" x2="47" y2="64.5" stroke="black"/>
<line x1="94" y1="65.5" x2="79" y2="65.5" stroke="black"/>
<line x1="126" y1="64.5" x2="141" y2="64.5" stroke="black"/>
<line x1="173" y1="64.5" x2="188" y2="64.5" stroke="black"/>
<path d="M203.646 49.3536C203.842 49.5488 204.158 49.5488 204.354 49.3536L207.536 46.1716C207.731 45.9763 207.731 45.6597 207.536 45.4645C207.34 45.2692 207.024 45.2692 206.828 45.4645L204 48.2929L201.172 45.4645C200.976 45.2692 200.66 45.2692 200.464 45.4645C200.269 45.6597 200.269 45.9763 200.464 46.1716L203.646 49.3536ZM203.5 18L203.5 49L204.5 49L204.5 18L203.5 18Z" fill="black"/>
<path d="M195.547 11H194.416V7.05664H190.115V11H188.99V2.46875H190.115V6.13672H194.416V2.46875H195.547V11ZM202.367 7.05664H198.67V10.0801H202.965V11H197.545V2.46875H202.906V3.39453H198.67V6.13672H202.367V7.05664ZM209.076 8.77344H205.502L204.699 11H203.539L206.797 2.46875H207.781L211.045 11H209.891L209.076 8.77344ZM205.842 7.84766H208.742L207.289 3.85742L205.842 7.84766ZM212.193 11V2.46875H214.602C215.344 2.46875 216 2.63281 216.57 2.96094C217.141 3.28906 217.58 3.75586 217.889 4.36133C218.201 4.9668 218.359 5.66211 218.363 6.44727V6.99219C218.363 7.79688 218.207 8.50195 217.895 9.10742C217.586 9.71289 217.143 10.1777 216.564 10.502C215.99 10.8262 215.32 10.9922 214.555 11H212.193ZM213.318 3.39453V10.0801H214.502C215.369 10.0801 216.043 9.81055 216.523 9.27148C217.008 8.73242 217.25 7.96484 217.25 6.96875V6.4707C217.25 5.50195 217.021 4.75 216.564 4.21484C216.111 3.67578 215.467 3.40234 214.631 3.39453H213.318Z" fill="black"/>
<path d="M10.7344 69C10.6719 68.875 10.6211 68.6523 10.582 68.332C10.0781 68.8555 9.47656 69.1172 8.77734 69.1172C8.15234 69.1172 7.63867 68.9414 7.23633 68.5898C6.83789 68.2344 6.63867 67.7852 6.63867 67.2422C6.63867 66.582 6.88867 66.0703 7.38867 65.707C7.89258 65.3398 8.59961 65.1562 9.50977 65.1562H10.5645V64.6582C10.5645 64.2793 10.4512 63.9785 10.2246 63.7559C9.99805 63.5293 9.66406 63.416 9.22266 63.416C8.83594 63.416 8.51172 63.5137 8.25 63.709C7.98828 63.9043 7.85742 64.1406 7.85742 64.418H6.76758C6.76758 64.1016 6.87891 63.7969 7.10156 63.5039C7.32812 63.207 7.63281 62.9727 8.01562 62.8008C8.40234 62.6289 8.82617 62.543 9.28711 62.543C10.0176 62.543 10.5898 62.7266 11.0039 63.0938C11.418 63.457 11.6328 63.959 11.6484 64.5996V67.5176C11.6484 68.0996 11.7227 68.5625 11.8711 68.9062V69H10.7344ZM8.93555 68.1738C9.27539 68.1738 9.59766 68.0859 9.90234 67.9102C10.207 67.7344 10.4277 67.5059 10.5645 67.2246V65.9238H9.71484C8.38672 65.9238 7.72266 66.3125 7.72266 67.0898C7.72266 67.4297 7.83594 67.6953 8.0625 67.8867C8.28906 68.0781 8.58008 68.1738 8.93555 68.1738ZM18.7148 65.9004C18.7148 66.8691 18.4922 67.6484 18.0469 68.2383C17.6016 68.8242 17.0039 69.1172 16.2539 69.1172C15.4531 69.1172 14.834 68.834 14.3965 68.2676L14.3438 69H13.3477V60H14.4316V63.3574C14.8691 62.8145 15.4727 62.543 16.2422 62.543C17.0117 62.543 17.6152 62.834 18.0527 63.416C18.4941 63.998 18.7148 64.7949 18.7148 65.8066V65.9004ZM17.6309 65.7773C17.6309 65.0391 17.4883 64.4688 17.2031 64.0664C16.918 63.6641 16.5078 63.4629 15.9727 63.4629C15.2578 63.4629 14.7441 63.7949 14.4316 64.459V67.2012C14.7637 67.8652 15.2812 68.1973 15.9844 68.1973C16.5039 68.1973 16.9082 67.9961 17.1973 67.5938C17.4863 67.1914 17.6309 66.5859 17.6309 65.7773ZM22.6289 68.2324C23.0156 68.2324 23.3535 68.1152 23.6426 67.8809C23.9316 67.6465 24.0918 67.3535 24.123 67.002H25.1484C25.1289 67.3652 25.0039 67.7109 24.7734 68.0391C24.543 68.3672 24.2344 68.6289 23.8477 68.8242C23.4648 69.0195 23.0586 69.1172 22.6289 69.1172C21.7656 69.1172 21.0781 68.8301 20.5664 68.2559C20.0586 67.6777 19.8047 66.8887 19.8047 65.8887V65.707C19.8047 65.0898 19.918 64.541 20.1445 64.0605C20.3711 63.5801 20.6953 63.207 21.1172 62.9414C21.543 62.6758 22.0449 62.543 22.623 62.543C23.334 62.543 23.9238 62.7559 24.3926 63.1816C24.8652 63.6074 25.1172 64.1602 25.1484 64.8398H24.123C24.0918 64.4297 23.9355 64.0938 23.6543 63.832C23.377 63.5664 23.0332 63.4336 22.623 63.4336C22.0723 63.4336 21.6445 63.6328 21.3398 64.0312C21.0391 64.4258 20.8887 64.998 20.8887 65.748V65.9531C20.8887 66.6836 21.0391 67.2461 21.3398 67.6406C21.6406 68.0352 22.0703 68.2324 22.6289 68.2324Z" fill="black"/>
<circle cx="16" cy="184" r="15.5" fill="#C4C4C4" stroke="black"/>
<circle cx="157" cy="184" r="15.5" fill="#C4C4C4" stroke="black"/>
<circle cx="110" cy="184" r="15.5" fill="#C4C4C4" stroke="black"/>
<circle cx="63" cy="184" r="15.5" fill="#C4C4C4" stroke="black"/>
<path d="M54.5566 184.777C54.5566 183.805 54.7871 183.023 55.248 182.434C55.709 181.84 56.3125 181.543 57.0586 181.543C57.8008 181.543 58.3887 181.797 58.8223 182.305V179H59.9062V188H58.9102L58.8574 187.32C58.4238 187.852 57.8203 188.117 57.0469 188.117C56.3125 188.117 55.7129 187.816 55.248 187.215C54.7871 186.613 54.5566 185.828 54.5566 184.859V184.777ZM55.6406 184.9C55.6406 185.619 55.7891 186.182 56.0859 186.588C56.3828 186.994 56.793 187.197 57.3164 187.197C58.0039 187.197 58.5059 186.889 58.8223 186.271V183.359C58.498 182.762 58 182.463 57.3281 182.463C56.7969 182.463 56.3828 182.668 56.0859 183.078C55.7891 183.488 55.6406 184.096 55.6406 184.9ZM64.2246 188.117C63.3652 188.117 62.666 187.836 62.127 187.273C61.5879 186.707 61.3184 185.951 61.3184 185.006V184.807C61.3184 184.178 61.4375 183.617 61.6758 183.125C61.918 182.629 62.2539 182.242 62.6836 181.965C63.1172 181.684 63.5859 181.543 64.0898 181.543C64.9141 181.543 65.5547 181.814 66.0117 182.357C66.4688 182.9 66.6973 183.678 66.6973 184.689V185.141H62.4023C62.418 185.766 62.5996 186.271 62.9473 186.658C63.2988 187.041 63.7441 187.232 64.2832 187.232C64.666 187.232 64.9902 187.154 65.2559 186.998C65.5215 186.842 65.7539 186.635 65.9531 186.377L66.6152 186.893C66.084 187.709 65.2871 188.117 64.2246 188.117ZM64.0898 182.434C63.6523 182.434 63.2852 182.594 62.9883 182.914C62.6914 183.23 62.5078 183.676 62.4375 184.25H65.6133V184.168C65.582 183.617 65.4336 183.191 65.168 182.891C64.9023 182.586 64.543 182.434 64.0898 182.434ZM68.4902 188V182.498H67.4883V181.66H68.4902V181.01C68.4902 180.33 68.6719 179.805 69.0352 179.434C69.3984 179.062 69.9121 178.877 70.5762 178.877C70.8262 178.877 71.0742 178.91 71.3203 178.977L71.2617 179.855C71.0781 179.82 70.8828 179.803 70.6758 179.803C70.3242 179.803 70.0527 179.906 69.8613 180.113C69.6699 180.316 69.5742 180.609 69.5742 180.992V181.66H70.9277V182.498H69.5742V188H68.4902Z" fill="black"/>
<path d="M102.562 184.777C102.562 183.789 102.791 183.004 103.248 182.422C103.705 181.836 104.311 181.543 105.064 181.543C105.838 181.543 106.441 181.816 106.875 182.363L106.928 181.66H107.918V187.848C107.918 188.668 107.674 189.314 107.186 189.787C106.701 190.26 106.049 190.496 105.229 190.496C104.771 190.496 104.324 190.398 103.887 190.203C103.449 190.008 103.115 189.74 102.885 189.4L103.447 188.75C103.912 189.324 104.48 189.611 105.152 189.611C105.68 189.611 106.09 189.463 106.383 189.166C106.68 188.869 106.828 188.451 106.828 187.912V187.367C106.395 187.867 105.803 188.117 105.053 188.117C104.311 188.117 103.709 187.818 103.248 187.221C102.791 186.623 102.562 185.809 102.562 184.777ZM103.652 184.9C103.652 185.615 103.799 186.178 104.092 186.588C104.385 186.994 104.795 187.197 105.322 187.197C106.006 187.197 106.508 186.887 106.828 186.266V183.371C106.496 182.766 105.998 182.463 105.334 182.463C104.807 182.463 104.395 182.668 104.098 183.078C103.801 183.488 103.652 184.096 103.652 184.9ZM110.643 182.428C111.123 181.838 111.748 181.543 112.518 181.543C113.857 181.543 114.533 182.299 114.545 183.811V188H113.461V183.805C113.457 183.348 113.352 183.01 113.145 182.791C112.941 182.572 112.623 182.463 112.189 182.463C111.838 182.463 111.529 182.557 111.264 182.744C110.998 182.932 110.791 183.178 110.643 183.482V188H109.559V179H110.643V182.428ZM117.346 188H116.262V181.66H117.346V188ZM116.174 179.979C116.174 179.803 116.227 179.654 116.332 179.533C116.441 179.412 116.602 179.352 116.812 179.352C117.023 179.352 117.184 179.412 117.293 179.533C117.402 179.654 117.457 179.803 117.457 179.979C117.457 180.154 117.402 180.301 117.293 180.418C117.184 180.535 117.023 180.594 116.812 180.594C116.602 180.594 116.441 180.535 116.332 180.418C116.227 180.301 116.174 180.154 116.174 179.979Z" fill="black"/>
<path d="M153.939 181.66V188.732C153.939 189.951 153.387 190.561 152.281 190.561C152.043 190.561 151.822 190.525 151.619 190.455V189.588C151.744 189.619 151.908 189.635 152.111 189.635C152.354 189.635 152.537 189.568 152.662 189.436C152.791 189.307 152.855 189.08 152.855 188.756V181.66H153.939ZM152.744 179.979C152.744 179.807 152.797 179.66 152.902 179.539C153.012 179.414 153.17 179.352 153.377 179.352C153.588 179.352 153.748 179.412 153.857 179.533C153.967 179.654 154.021 179.803 154.021 179.979C154.021 180.154 153.967 180.301 153.857 180.418C153.748 180.535 153.588 180.594 153.377 180.594C153.166 180.594 153.008 180.535 152.902 180.418C152.797 180.301 152.744 180.154 152.744 179.979ZM157.461 185.064L156.781 185.773V188H155.697V179H156.781V184.443L157.361 183.746L159.336 181.66H160.654L158.188 184.309L160.941 188H159.67L157.461 185.064ZM162.951 188H161.867V179H162.951V188Z" fill="black"/>
<circle cx="204" cy="184" r="15.5" fill="#FF8383" stroke="black"/>
<line x1="32" y1="183.5" x2="47" y2="183.5" stroke="black"/>
<line x1="94" y1="184.5" x2="79" y2="184.5" stroke="black"/>
<line x1="126" y1="183.5" x2="141" y2="183.5" stroke="black"/>
<line x1="173" y1="183.5" x2="188" y2="183.5" stroke="black"/>
<path d="M109.646 168.354C109.842 168.549 110.158 168.549 110.354 168.354L113.536 165.172C113.731 164.976 113.731 164.66 113.536 164.464C113.34 164.269 113.024 164.269 112.828 164.464L110 167.293L107.172 164.464C106.976 164.269 106.66 164.269 106.464 164.464C106.269 164.66 106.269 164.976 106.464 165.172L109.646 168.354ZM109.5 137L109.5 168L110.5 168L110.5 137L109.5 137Z" fill="black"/>
<path d="M101.547 130H100.416V126.057H96.1152V130H94.9902V121.469H96.1152V125.137H100.416V121.469H101.547V130ZM108.367 126.057H104.67V129.08H108.965V130H103.545V121.469H108.906V122.395H104.67V125.137H108.367V126.057ZM115.076 127.773H111.502L110.699 130H109.539L112.797 121.469H113.781L117.045 130H115.891L115.076 127.773ZM111.842 126.848H114.742L113.289 122.857L111.842 126.848ZM118.193 130V121.469H120.602C121.344 121.469 122 121.633 122.57 121.961C123.141 122.289 123.58 122.756 123.889 123.361C124.201 123.967 124.359 124.662 124.363 125.447V125.992C124.363 126.797 124.207 127.502 123.895 128.107C123.586 128.713 123.143 129.178 122.564 129.502C121.99 129.826 121.32 129.992 120.555 130H118.193ZM119.318 122.395V129.08H120.502C121.369 129.08 122.043 128.811 122.523 128.271C123.008 127.732 123.25 126.965 123.25 125.969V125.471C123.25 124.502 123.021 123.75 122.564 123.215C122.111 122.676 121.467 122.402 120.631 122.395H119.318Z" fill="black"/>
<path d="M10.7344 188C10.6719 187.875 10.6211 187.652 10.582 187.332C10.0781 187.855 9.47656 188.117 8.77734 188.117C8.15234 188.117 7.63867 187.941 7.23633 187.59C6.83789 187.234 6.63867 186.785 6.63867 186.242C6.63867 185.582 6.88867 185.07 7.38867 184.707C7.89258 184.34 8.59961 184.156 9.50977 184.156H10.5645V183.658C10.5645 183.279 10.4512 182.979 10.2246 182.756C9.99805 182.529 9.66406 182.416 9.22266 182.416C8.83594 182.416 8.51172 182.514 8.25 182.709C7.98828 182.904 7.85742 183.141 7.85742 183.418H6.76758C6.76758 183.102 6.87891 182.797 7.10156 182.504C7.32812 182.207 7.63281 181.973 8.01562 181.801C8.40234 181.629 8.82617 181.543 9.28711 181.543C10.0176 181.543 10.5898 181.727 11.0039 182.094C11.418 182.457 11.6328 182.959 11.6484 183.6V186.518C11.6484 187.1 11.7227 187.562 11.8711 187.906V188H10.7344ZM8.93555 187.174C9.27539 187.174 9.59766 187.086 9.90234 186.91C10.207 186.734 10.4277 186.506 10.5645 186.225V184.924H9.71484C8.38672 184.924 7.72266 185.312 7.72266 186.09C7.72266 186.43 7.83594 186.695 8.0625 186.887C8.28906 187.078 8.58008 187.174 8.93555 187.174ZM18.7148 184.9C18.7148 185.869 18.4922 186.648 18.0469 187.238C17.6016 187.824 17.0039 188.117 16.2539 188.117C15.4531 188.117 14.834 187.834 14.3965 187.268L14.3438 188H13.3477V179H14.4316V182.357C14.8691 181.814 15.4727 181.543 16.2422 181.543C17.0117 181.543 17.6152 181.834 18.0527 182.416C18.4941 182.998 18.7148 183.795 18.7148 184.807V184.9ZM17.6309 184.777C17.6309 184.039 17.4883 183.469 17.2031 183.066C16.918 182.664 16.5078 182.463 15.9727 182.463C15.2578 182.463 14.7441 182.795 14.4316 183.459V186.201C14.7637 186.865 15.2812 187.197 15.9844 187.197C16.5039 187.197 16.9082 186.996 17.1973 186.594C17.4863 186.191 17.6309 185.586 17.6309 184.777ZM22.6289 187.232C23.0156 187.232 23.3535 187.115 23.6426 186.881C23.9316 186.646 24.0918 186.354 24.123 186.002H25.1484C25.1289 186.365 25.0039 186.711 24.7734 187.039C24.543 187.367 24.2344 187.629 23.8477 187.824C23.4648 188.02 23.0586 188.117 22.6289 188.117C21.7656 188.117 21.0781 187.83 20.5664 187.256C20.0586 186.678 19.8047 185.889 19.8047 184.889V184.707C19.8047 184.09 19.918 183.541 20.1445 183.061C20.3711 182.58 20.6953 182.207 21.1172 181.941C21.543 181.676 22.0449 181.543 22.623 181.543C23.334 181.543 23.9238 181.756 24.3926 182.182C24.8652 182.607 25.1172 183.16 25.1484 183.84H24.123C24.0918 183.43 23.9355 183.094 23.6543 182.832C23.377 182.566 23.0332 182.434 22.623 182.434C22.0723 182.434 21.6445 182.633 21.3398 183.031C21.0391 183.426 20.8887 183.998 20.8887 184.748V184.953C20.8887 185.684 21.0391 186.246 21.3398 186.641C21.6406 187.035 22.0703 187.232 22.6289 187.232Z" fill="black"/>
<path d="M244.791 83.6137L244.399 83.9249L244.399 83.9249L244.791 83.6137ZM242.27 166.253L242.641 166.588L242.641 166.588L242.27 166.253ZM228.501 181.026C228.515 181.302 228.75 181.514 229.026 181.499L233.52 181.262C233.796 181.248 234.008 181.013 233.993 180.737C233.978 180.461 233.743 180.249 233.467 180.264L229.473 180.474L229.262 176.48C229.248 176.204 229.012 175.992 228.737 176.007C228.461 176.022 228.249 176.257 228.264 176.533L228.501 181.026ZM229.6 65.3112L244.399 83.9249L245.182 83.3025L230.383 64.6888L229.6 65.3112ZM241.898 165.919L228.628 180.666L229.372 181.335L242.641 166.588L241.898 165.919ZM244.399 83.9249C263.7 108.2 262.642 142.865 241.898 165.919L242.641 166.588C263.712 143.171 264.787 107.96 245.182 83.3025L244.399 83.9249Z" fill="black"/>
<path d="M276.562 125.777C276.562 124.789 276.791 124.004 277.248 123.422C277.705 122.836 278.311 122.543 279.064 122.543C279.838 122.543 280.441 122.816 280.875 123.363L280.928 122.66H281.918V128.848C281.918 129.668 281.674 130.314 281.186 130.787C280.701 131.26 280.049 131.496 279.229 131.496C278.771 131.496 278.324 131.398 277.887 131.203C277.449 131.008 277.115 130.74 276.885 130.4L277.447 129.75C277.912 130.324 278.48 130.611 279.152 130.611C279.68 130.611 280.09 130.463 280.383 130.166C280.68 129.869 280.828 129.451 280.828 128.912V128.367C280.395 128.867 279.803 129.117 279.053 129.117C278.311 129.117 277.709 128.818 277.248 128.221C276.791 127.623 276.562 126.809 276.562 125.777ZM277.652 125.9C277.652 126.615 277.799 127.178 278.092 127.588C278.385 127.994 278.795 128.197 279.322 128.197C280.006 128.197 280.508 127.887 280.828 127.266V124.371C280.496 123.766 279.998 123.463 279.334 123.463C278.807 123.463 278.395 123.668 278.098 124.078C277.801 124.488 277.652 125.096 277.652 125.9ZM284.736 129H283.652V122.66H284.736V129ZM283.564 120.979C283.564 120.803 283.617 120.654 283.723 120.533C283.832 120.412 283.992 120.352 284.203 120.352C284.414 120.352 284.574 120.412 284.684 120.533C284.793 120.654 284.848 120.803 284.848 120.979C284.848 121.154 284.793 121.301 284.684 121.418C284.574 121.535 284.414 121.594 284.203 121.594C283.992 121.594 283.832 121.535 283.723 121.418C283.617 121.301 283.564 121.154 283.564 120.979ZM287.947 121.125V122.66H289.131V123.498H287.947V127.43C287.947 127.684 288 127.875 288.105 128.004C288.211 128.129 288.391 128.191 288.645 128.191C288.77 128.191 288.941 128.168 289.16 128.121V129C288.875 129.078 288.598 129.117 288.328 129.117C287.844 129.117 287.479 128.971 287.232 128.678C286.986 128.385 286.863 127.969 286.863 127.43V123.498H285.709V122.66H286.863V121.125H287.947ZM296.443 123.633C296.279 123.605 296.102 123.592 295.91 123.592C295.199 123.592 294.717 123.895 294.463 124.5V129H293.379V122.66H294.434L294.451 123.393C294.807 122.826 295.311 122.543 295.963 122.543C296.174 122.543 296.334 122.57 296.443 122.625V123.633ZM299.959 129.117C299.1 129.117 298.4 128.836 297.861 128.273C297.322 127.707 297.053 126.951 297.053 126.006V125.807C297.053 125.178 297.172 124.617 297.41 124.125C297.652 123.629 297.988 123.242 298.418 122.965C298.852 122.684 299.32 122.543 299.824 122.543C300.648 122.543 301.289 122.814 301.746 123.357C302.203 123.9 302.432 124.678 302.432 125.689V126.141H298.137C298.152 126.766 298.334 127.271 298.682 127.658C299.033 128.041 299.479 128.232 300.018 128.232C300.4 128.232 300.725 128.154 300.99 127.998C301.256 127.842 301.488 127.635 301.688 127.377L302.35 127.893C301.818 128.709 301.021 129.117 299.959 129.117ZM299.824 123.434C299.387 123.434 299.02 123.594 298.723 123.914C298.426 124.23 298.242 124.676 298.172 125.25H301.348V125.168C301.316 124.617 301.168 124.191 300.902 123.891C300.637 123.586 300.277 123.434 299.824 123.434ZM307.383 127.318C307.383 127.025 307.271 126.799 307.049 126.639C306.83 126.475 306.445 126.334 305.895 126.217C305.348 126.1 304.912 125.959 304.588 125.795C304.268 125.631 304.029 125.436 303.873 125.209C303.721 124.982 303.645 124.713 303.645 124.4C303.645 123.881 303.863 123.441 304.301 123.082C304.742 122.723 305.305 122.543 305.988 122.543C306.707 122.543 307.289 122.729 307.734 123.1C308.184 123.471 308.408 123.945 308.408 124.523H307.318C307.318 124.227 307.191 123.971 306.938 123.756C306.688 123.541 306.371 123.434 305.988 123.434C305.594 123.434 305.285 123.52 305.062 123.691C304.84 123.863 304.729 124.088 304.729 124.365C304.729 124.627 304.832 124.824 305.039 124.957C305.246 125.09 305.619 125.217 306.158 125.338C306.701 125.459 307.141 125.604 307.477 125.771C307.812 125.939 308.061 126.143 308.221 126.381C308.385 126.615 308.467 126.902 308.467 127.242C308.467 127.809 308.24 128.264 307.787 128.607C307.334 128.947 306.746 129.117 306.023 129.117C305.516 129.117 305.066 129.027 304.676 128.848C304.285 128.668 303.979 128.418 303.756 128.098C303.537 127.773 303.428 127.424 303.428 127.049H304.512C304.531 127.412 304.676 127.701 304.945 127.916C305.219 128.127 305.578 128.232 306.023 128.232C306.434 128.232 306.762 128.15 307.008 127.986C307.258 127.818 307.383 127.596 307.383 127.318ZM312.51 129.117C311.65 129.117 310.951 128.836 310.412 128.273C309.873 127.707 309.604 126.951 309.604 126.006V125.807C309.604 125.178 309.723 124.617 309.961 124.125C310.203 123.629 310.539 123.242 310.969 122.965C311.402 122.684 311.871 122.543 312.375 122.543C313.199 122.543 313.84 122.814 314.297 123.357C314.754 123.9 314.982 124.678 314.982 125.689V126.141H310.688C310.703 126.766 310.885 127.271 311.232 127.658C311.584 128.041 312.029 128.232 312.568 128.232C312.951 128.232 313.275 128.154 313.541 127.998C313.807 127.842 314.039 127.635 314.238 127.377L314.9 127.893C314.369 128.709 313.572 129.117 312.51 129.117ZM312.375 123.434C311.938 123.434 311.57 123.594 311.273 123.914C310.977 124.23 310.793 124.676 310.723 125.25H313.898V125.168C313.867 124.617 313.719 124.191 313.453 123.891C313.188 123.586 312.828 123.434 312.375 123.434ZM317.713 121.125V122.66H318.896V123.498H317.713V127.43C317.713 127.684 317.766 127.875 317.871 128.004C317.977 128.129 318.156 128.191 318.41 128.191C318.535 128.191 318.707 128.168 318.926 128.121V129C318.641 129.078 318.363 129.117 318.094 129.117C317.609 129.117 317.244 128.971 316.998 128.678C316.752 128.385 316.629 127.969 316.629 127.43V123.498H315.475V122.66H316.629V121.125H317.713ZM322.887 125.777C322.887 124.789 323.115 124.004 323.572 123.422C324.029 122.836 324.635 122.543 325.389 122.543C326.162 122.543 326.766 122.816 327.199 123.363L327.252 122.66H328.242V128.848C328.242 129.668 327.998 130.314 327.51 130.787C327.025 131.26 326.373 131.496 325.553 131.496C325.096 131.496 324.648 131.398 324.211 131.203C323.773 131.008 323.439 130.74 323.209 130.4L323.771 129.75C324.236 130.324 324.805 130.611 325.477 130.611C326.004 130.611 326.414 130.463 326.707 130.166C327.004 129.869 327.152 129.451 327.152 128.912V128.367C326.719 128.867 326.127 129.117 325.377 129.117C324.635 129.117 324.033 128.818 323.572 128.221C323.115 127.623 322.887 126.809 322.887 125.777ZM323.977 125.9C323.977 126.615 324.123 127.178 324.416 127.588C324.709 127.994 325.119 128.197 325.646 128.197C326.33 128.197 326.832 127.887 327.152 127.266V124.371C326.82 123.766 326.322 123.463 325.658 123.463C325.131 123.463 324.719 123.668 324.422 124.078C324.125 124.488 323.977 125.096 323.977 125.9ZM330.967 123.428C331.447 122.838 332.072 122.543 332.842 122.543C334.182 122.543 334.857 123.299 334.869 124.811V129H333.785V124.805C333.781 124.348 333.676 124.01 333.469 123.791C333.266 123.572 332.947 123.463 332.514 123.463C332.162 123.463 331.854 123.557 331.588 123.744C331.322 123.932 331.115 124.178 330.967 124.482V129H329.883V120H330.967V123.428ZM337.67 129H336.586V122.66H337.67V129ZM336.498 120.979C336.498 120.803 336.551 120.654 336.656 120.533C336.766 120.412 336.926 120.352 337.137 120.352C337.348 120.352 337.508 120.412 337.617 120.533C337.727 120.654 337.781 120.803 337.781 120.979C337.781 121.154 337.727 121.301 337.617 121.418C337.508 121.535 337.348 121.594 337.137 121.594C336.926 121.594 336.766 121.535 336.656 121.418C336.551 121.301 336.498 121.154 336.498 120.979Z" fill="black"/>
</svg>
