<svg width="389" height="200" viewBox="0 0 389 200" fill="none" xmlns="http://www.w3.org/2000/svg">
<circle cx="16" cy="65" r="15.5" fill="#C4C4C4" stroke="black"/>
<circle cx="157" cy="65" r="15.5" fill="#C4C4C4" stroke="black"/>
<circle cx="110" cy="65" r="15.5" fill="#C4C4C4" stroke="black"/>
<circle cx="63" cy="65" r="15.5" fill="#C4C4C4" stroke="black"/>
<path d="M54.5566 65.7773C54.5566 64.8047 54.7871 64.0234 55.248 63.4336C55.709 62.8398 56.3125 62.543 57.0586 62.543C57.8008 62.543 58.3887 62.7969 58.8223 63.3047V60H59.9062V69H58.9102L58.8574 68.3203C58.4238 68.8516 57.8203 69.1172 57.0469 69.1172C56.3125 69.1172 55.7129 68.8164 55.248 68.2148C54.7871 67.6133 54.5566 66.8281 54.5566 65.8594V65.7773ZM55.6406 65.9004C55.6406 66.6191 55.7891 67.1816 56.0859 67.5879C56.3828 67.9941 56.793 68.1973 57.3164 68.1973C58.0039 68.1973 58.5059 67.8887 58.8223 67.2715V64.3594C58.498 63.7617 58 63.4629 57.3281 63.4629C56.7969 63.4629 56.3828 63.668 56.0859 64.0781C55.7891 64.4883 55.6406 65.0957 55.6406 65.9004ZM64.2246 69.1172C63.3652 69.1172 62.666 68.8359 62.127 68.2734C61.5879 67.707 61.3184 66.9512 61.3184 66.0059V65.8066C61.3184 65.1777 61.4375 64.6172 61.6758 64.125C61.918 63.6289 62.2539 63.2422 62.6836 62.9648C63.1172 62.6836 63.5859 62.543 64.0898 62.543C64.9141 62.543 65.5547 62.8145 66.0117 63.3574C66.4688 63.9004 66.6973 64.6777 66.6973 65.6895V66.1406H62.4023C62.418 66.7656 62.5996 67.2715 62.9473 67.6582C63.2988 68.041 63.7441 68.2324 64.2832 68.2324C64.666 68.2324 64.9902 68.1543 65.2559 67.998C65.5215 67.8418 65.7539 67.6348 65.9531 67.377L66.6152 67.8926C66.084 68.709 65.2871 69.1172 64.2246 69.1172ZM64.0898 63.4336C63.6523 63.4336 63.2852 63.5938 62.9883 63.9141C62.6914 64.2305 62.5078 64.6758 62.4375 65.25H65.6133V65.168C65.582 64.6172 65.4336 64.1914 65.168 63.8906C64.9023 63.5859 64.543 63.4336 64.0898 63.4336ZM68.4902 69V63.498H67.4883V62.6602H68.4902V62.0098C68.4902 61.3301 68.6719 60.8047 69.0352 60.4336C69.3984 60.0625 69.9121 59.877 70.5762 59.877C70.8262 59.877 71.0742 59.9102 71.3203 59.9766L71.2617 60.8555C71.0781 60.8203 70.8828 60.8027 70.6758 60.8027C70.3242 60.8027 70.0527 60.9062 69.8613 61.1133C69.6699 61.3164 69.5742 61.6094 69.5742 61.9922V62.6602H70.9277V63.498H69.5742V69H68.4902Z" fill="black"/>
<path d="M102.562 65.7773C102.562 64.7891 102.791 64.0039 103.248 63.4219C103.705 62.8359 104.311 62.543 105.064 62.543C105.838 62.543 106.441 62.8164 106.875 63.3633L106.928 62.6602H107.918V68.8477C107.918 69.668 107.674 70.3145 107.186 70.7871C106.701 71.2598 106.049 71.4961 105.229 71.4961C104.771 71.4961 104.324 71.3984 103.887 71.2031C103.449 71.0078 103.115 70.7402 102.885 70.4004L103.447 69.75C103.912 70.3242 104.48 70.6113 105.152 70.6113C105.68 70.6113 106.09 70.4629 106.383 70.166C106.68 69.8691 106.828 69.4512 106.828 68.9121V68.3672C106.395 68.8672 105.803 69.1172 105.053 69.1172C104.311 69.1172 103.709 68.8184 103.248 68.2207C102.791 67.623 102.562 66.8086 102.562 65.7773ZM103.652 65.9004C103.652 66.6152 103.799 67.1777 104.092 67.5879C104.385 67.9941 104.795 68.1973 105.322 68.1973C106.006 68.1973 106.508 67.8867 106.828 67.2656V64.3711C106.496 63.7656 105.998 63.4629 105.334 63.4629C104.807 63.4629 104.395 63.668 104.098 64.0781C103.801 64.4883 103.652 65.0957 103.652 65.9004ZM110.643 63.4277C111.123 62.8379 111.748 62.543 112.518 62.543C113.857 62.543 114.533 63.2988 114.545 64.8105V69H113.461V64.8047C113.457 64.3477 113.352 64.0098 113.145 63.791C112.941 63.5723 112.623 63.4629 112.189 63.4629C111.838 63.4629 111.529 63.5566 111.264 63.7441C110.998 63.9316 110.791 64.1777 110.643 64.4824V69H109.559V60H110.643V63.4277ZM117.346 69H116.262V62.6602H117.346V69ZM116.174 60.9785C116.174 60.8027 116.227 60.6543 116.332 60.5332C116.441 60.4121 116.602 60.3516 116.812 60.3516C117.023 60.3516 117.184 60.4121 117.293 60.5332C117.402 60.6543 117.457 60.8027 117.457 60.9785C117.457 61.1543 117.402 61.3008 117.293 61.418C117.184 61.5352 117.023 61.5938 116.812 61.5938C116.602 61.5938 116.441 61.5352 116.332 61.418C116.227 61.3008 116.174 61.1543 116.174 60.9785Z" fill="black"/>
<path d="M153.939 62.6602V69.7324C153.939 70.9512 153.387 71.5605 152.281 71.5605C152.043 71.5605 151.822 71.5254 151.619 71.4551V70.5879C151.744 70.6191 151.908 70.6348 152.111 70.6348C152.354 70.6348 152.537 70.5684 152.662 70.4355C152.791 70.3066 152.855 70.0801 152.855 69.7559V62.6602H153.939ZM152.744 60.9785C152.744 60.8066 152.797 60.6602 152.902 60.5391C153.012 60.4141 153.17 60.3516 153.377 60.3516C153.588 60.3516 153.748 60.4121 153.857 60.5332C153.967 60.6543 154.021 60.8027 154.021 60.9785C154.021 61.1543 153.967 61.3008 153.857 61.418C153.748 61.5352 153.588 61.5938 153.377 61.5938C153.166 61.5938 153.008 61.5352 152.902 61.418C152.797 61.3008 152.744 61.1543 152.744 60.9785ZM157.461 66.0645L156.781 66.7734V69H155.697V60H156.781V65.4434L157.361 64.7461L159.336 62.6602H160.654L158.188 65.3086L160.941 69H159.67L157.461 66.0645ZM162.951 69H161.867V60H162.951V69Z" fill="black"/>
<circle cx="204" cy="65" r="15.5" fill="#FF8383" stroke="black"/>
<line x1="32" y1="64.5" x2="47" y2="64.5" stroke="black"/>
<line x1="94" y1="65.5" x2="79" y2="65.5" stroke="black"/>
<line x1="126" y1="64.5" x2="141" y2="64.5" stroke="black"/>
<line x1="173" y1="64.5" x2="188" y2="64.5" stroke="black"/>
<path d="M203.646 49.3536C203.842 49.5488 204.158 49.5488 204.354 49.3536L207.536 46.1716C207.731 45.9763 207.731 45.6597 207.536 45.4645C207.34 45.2692 207.024 45.2692 206.828 45.4645L204 48.2929L201.172 45.4645C200.976 45.2692 200.66 45.2692 200.464 45.4645C200.269 45.6597 200.269 45.9763 200.464 46.1716L203.646 49.3536ZM203.5 18L203.5 49L204.5 49L204.5 18L203.5 18Z" fill="black"/>
<path d="M195.547 11H194.416V7.05664H190.115V11H188.99V2.46875H190.115V6.13672H194.416V2.46875H195.547V11ZM202.367 7.05664H198.67V10.0801H202.965V11H197.545V2.46875H202.906V3.39453H198.67V6.13672H202.367V7.05664ZM209.076 8.77344H205.502L204.699 11H203.539L206.797 2.46875H207.781L211.045 11H209.891L209.076 8.77344ZM205.842 7.84766H208.742L207.289 3.85742L205.842 7.84766ZM212.193 11V2.46875H214.602C215.344 2.46875 216 2.63281 216.57 2.96094C217.141 3.28906 217.58 3.75586 217.889 4.36133C218.201 4.9668 218.359 5.66211 218.363 6.44727V6.99219C218.363 7.79688 218.207 8.50195 217.895 9.10742C217.586 9.71289 217.143 10.1777 216.564 10.502C215.99 10.8262 215.32 10.9922 214.555 11H212.193ZM213.318 3.39453V10.0801H214.502C215.369 10.0801 216.043 9.81055 216.523 9.27148C217.008 8.73242 217.25 7.96484 217.25 6.96875V6.4707C217.25 5.50195 217.021 4.75 216.564 4.21484C216.111 3.67578 215.467 3.40234 214.631 3.39453H213.318Z" fill="black"/>
<path d="M10.7344 69C10.6719 68.875 10.6211 68.6523 10.582 68.332C10.0781 68.8555 9.47656 69.1172 8.77734 69.1172C8.15234 69.1172 7.63867 68.9414 7.23633 68.5898C6.83789 68.2344 6.63867 67.7852 6.63867 67.2422C6.63867 66.582 6.88867 66.0703 7.38867 65.707C7.89258 65.3398 8.59961 65.1562 9.50977 65.1562H10.5645V64.6582C10.5645 64.2793 10.4512 63.9785 10.2246 63.7559C9.99805 63.5293 9.66406 63.416 9.22266 63.416C8.83594 63.416 8.51172 63.5137 8.25 63.709C7.98828 63.9043 7.85742 64.1406 7.85742 64.418H6.76758C6.76758 64.1016 6.87891 63.7969 7.10156 63.5039C7.32812 63.207 7.63281 62.9727 8.01562 62.8008C8.40234 62.6289 8.82617 62.543 9.28711 62.543C10.0176 62.543 10.5898 62.7266 11.0039 63.0938C11.418 63.457 11.6328 63.959 11.6484 64.5996V67.5176C11.6484 68.0996 11.7227 68.5625 11.8711 68.9062V69H10.7344ZM8.93555 68.1738C9.27539 68.1738 9.59766 68.0859 9.90234 67.9102C10.207 67.7344 10.4277 67.5059 10.5645 67.2246V65.9238H9.71484C8.38672 65.9238 7.72266 66.3125 7.72266 67.0898C7.72266 67.4297 7.83594 67.6953 8.0625 67.8867C8.28906 68.0781 8.58008 68.1738 8.93555 68.1738ZM18.7148 65.9004C18.7148 66.8691 18.4922 67.6484 18.0469 68.2383C17.6016 68.8242 17.0039 69.1172 16.2539 69.1172C15.4531 69.1172 14.834 68.834 14.3965 68.2676L14.3438 69H13.3477V60H14.4316V63.3574C14.8691 62.8145 15.4727 62.543 16.2422 62.543C17.0117 62.543 17.6152 62.834 18.0527 63.416C18.4941 63.998 18.7148 64.7949 18.7148 65.8066V65.9004ZM17.6309 65.7773C17.6309 65.0391 17.4883 64.4688 17.2031 64.0664C16.918 63.6641 16.5078 63.4629 15.9727 63.4629C15.2578 63.4629 14.7441 63.7949 14.4316 64.459V67.2012C14.7637 67.8652 15.2812 68.1973 15.9844 68.1973C16.5039 68.1973 16.9082 67.9961 17.1973 67.5938C17.4863 67.1914 17.6309 66.5859 17.6309 65.7773ZM22.6289 68.2324C23.0156 68.2324 23.3535 68.1152 23.6426 67.8809C23.9316 67.6465 24.0918 67.3535 24.123 67.002H25.1484C25.1289 67.3652 25.0039 67.7109 24.7734 68.0391C24.543 68.3672 24.2344 68.6289 23.8477 68.8242C23.4648 69.0195 23.0586 69.1172 22.6289 69.1172C21.7656 69.1172 21.0781 68.8301 20.5664 68.2559C20.0586 67.6777 19.8047 66.8887 19.8047 65.8887V65.707C19.8047 65.0898 19.918 64.541 20.1445 64.0605C20.3711 63.5801 20.6953 63.207 21.1172 62.9414C21.543 62.6758 22.0449 62.543 22.623 62.543C23.334 62.543 23.9238 62.7559 24.3926 63.1816C24.8652 63.6074 25.1172 64.1602 25.1484 64.8398H24.123C24.0918 64.4297 23.9355 64.0938 23.6543 63.832C23.377 63.5664 23.0332 63.4336 22.623 63.4336C22.0723 63.4336 21.6445 63.6328 21.3398 64.0312C21.0391 64.4258 20.8887 64.998 20.8887 65.748V65.9531C20.8887 66.6836 21.0391 67.2461 21.3398 67.6406C21.6406 68.0352 22.0703 68.2324 22.6289 68.2324Z" fill="black"/>
<circle cx="16" cy="184" r="15.5" fill="#C4C4C4" stroke="black"/>
<circle cx="157" cy="184" r="15.5" fill="#C4C4C4" stroke="black"/>
<circle cx="110" cy="184" r="15.5" fill="#C4C4C4" stroke="black"/>
<circle cx="63" cy="184" r="15.5" fill="#C4C4C4" stroke="black"/>
<path d="M54.5566 184.777C54.5566 183.805 54.7871 183.023 55.248 182.434C55.709 181.84 56.3125 181.543 57.0586 181.543C57.8008 181.543 58.3887 181.797 58.8223 182.305V179H59.9062V188H58.9102L58.8574 187.32C58.4238 187.852 57.8203 188.117 57.0469 188.117C56.3125 188.117 55.7129 187.816 55.248 187.215C54.7871 186.613 54.5566 185.828 54.5566 184.859V184.777ZM55.6406 184.9C55.6406 185.619 55.7891 186.182 56.0859 186.588C56.3828 186.994 56.793 187.197 57.3164 187.197C58.0039 187.197 58.5059 186.889 58.8223 186.271V183.359C58.498 182.762 58 182.463 57.3281 182.463C56.7969 182.463 56.3828 182.668 56.0859 183.078C55.7891 183.488 55.6406 184.096 55.6406 184.9ZM64.2246 188.117C63.3652 188.117 62.666 187.836 62.127 187.273C61.5879 186.707 61.3184 185.951 61.3184 185.006V184.807C61.3184 184.178 61.4375 183.617 61.6758 183.125C61.918 182.629 62.2539 182.242 62.6836 181.965C63.1172 181.684 63.5859 181.543 64.0898 181.543C64.9141 181.543 65.5547 181.814 66.0117 182.357C66.4688 182.9 66.6973 183.678 66.6973 184.689V185.141H62.4023C62.418 185.766 62.5996 186.271 62.9473 186.658C63.2988 187.041 63.7441 187.232 64.2832 187.232C64.666 187.232 64.9902 187.154 65.2559 186.998C65.5215 186.842 65.7539 186.635 65.9531 186.377L66.6152 186.893C66.084 187.709 65.2871 188.117 64.2246 188.117ZM64.0898 182.434C63.6523 182.434 63.2852 182.594 62.9883 182.914C62.6914 183.23 62.5078 183.676 62.4375 184.25H65.6133V184.168C65.582 183.617 65.4336 183.191 65.168 182.891C64.9023 182.586 64.543 182.434 64.0898 182.434ZM68.4902 188V182.498H67.4883V181.66H68.4902V181.01C68.4902 180.33 68.6719 179.805 69.0352 179.434C69.3984 179.062 69.9121 178.877 70.5762 178.877C70.8262 178.877 71.0742 178.91 71.3203 178.977L71.2617 179.855C71.0781 179.82 70.8828 179.803 70.6758 179.803C70.3242 179.803 70.0527 179.906 69.8613 180.113C69.6699 180.316 69.5742 180.609 69.5742 180.992V181.66H70.9277V182.498H69.5742V188H68.4902Z" fill="black"/>
<path d="M102.562 184.777C102.562 183.789 102.791 183.004 103.248 182.422C103.705 181.836 104.311 181.543 105.064 181.543C105.838 181.543 106.441 181.816 106.875 182.363L106.928 181.66H107.918V187.848C107.918 188.668 107.674 189.314 107.186 189.787C106.701 190.26 106.049 190.496 105.229 190.496C104.771 190.496 104.324 190.398 103.887 190.203C103.449 190.008 103.115 189.74 102.885 189.4L103.447 188.75C103.912 189.324 104.48 189.611 105.152 189.611C105.68 189.611 106.09 189.463 106.383 189.166C106.68 188.869 106.828 188.451 106.828 187.912V187.367C106.395 187.867 105.803 188.117 105.053 188.117C104.311 188.117 103.709 187.818 103.248 187.221C102.791 186.623 102.562 185.809 102.562 184.777ZM103.652 184.9C103.652 185.615 103.799 186.178 104.092 186.588C104.385 186.994 104.795 187.197 105.322 187.197C106.006 187.197 106.508 186.887 106.828 186.266V183.371C106.496 182.766 105.998 182.463 105.334 182.463C104.807 182.463 104.395 182.668 104.098 183.078C103.801 183.488 103.652 184.096 103.652 184.9ZM110.643 182.428C111.123 181.838 111.748 181.543 112.518 181.543C113.857 181.543 114.533 182.299 114.545 183.811V188H113.461V183.805C113.457 183.348 113.352 183.01 113.145 182.791C112.941 182.572 112.623 182.463 112.189 182.463C111.838 182.463 111.529 182.557 111.264 182.744C110.998 182.932 110.791 183.178 110.643 183.482V188H109.559V179H110.643V182.428ZM117.346 188H116.262V181.66H117.346V188ZM116.174 179.979C116.174 179.803 116.227 179.654 116.332 179.533C116.441 179.412 116.602 179.352 116.812 179.352C117.023 179.352 117.184 179.412 117.293 179.533C117.402 179.654 117.457 179.803 117.457 179.979C117.457 180.154 117.402 180.301 117.293 180.418C117.184 180.535 117.023 180.594 116.812 180.594C116.602 180.594 116.441 180.535 116.332 180.418C116.227 180.301 116.174 180.154 116.174 179.979Z" fill="black"/>
<path d="M153.939 181.66V188.732C153.939 189.951 153.387 190.561 152.281 190.561C152.043 190.561 151.822 190.525 151.619 190.455V189.588C151.744 189.619 151.908 189.635 152.111 189.635C152.354 189.635 152.537 189.568 152.662 189.436C152.791 189.307 152.855 189.08 152.855 188.756V181.66H153.939ZM152.744 179.979C152.744 179.807 152.797 179.66 152.902 179.539C153.012 179.414 153.17 179.352 153.377 179.352C153.588 179.352 153.748 179.412 153.857 179.533C153.967 179.654 154.021 179.803 154.021 179.979C154.021 180.154 153.967 180.301 153.857 180.418C153.748 180.535 153.588 180.594 153.377 180.594C153.166 180.594 153.008 180.535 152.902 180.418C152.797 180.301 152.744 180.154 152.744 179.979ZM157.461 185.064L156.781 185.773V188H155.697V179H156.781V184.443L157.361 183.746L159.336 181.66H160.654L158.188 184.309L160.941 188H159.67L157.461 185.064ZM162.951 188H161.867V179H162.951V188Z" fill="black"/>
<circle cx="204" cy="184" r="15.5" fill="#FF8383" stroke="black"/>
<circle cx="251" cy="184" r="15.5" fill="#8EA0FF" stroke="black"/>
<path d="M245.076 184.818H242.217V183.934H245.076V184.818ZM245.879 184.777C245.879 183.789 246.107 183.004 246.564 182.422C247.021 181.836 247.627 181.543 248.381 181.543C249.154 181.543 249.758 181.816 250.191 182.363L250.244 181.66H251.234V187.848C251.234 188.668 250.99 189.314 250.502 189.787C250.018 190.26 249.365 190.496 248.545 190.496C248.088 190.496 247.641 190.398 247.203 190.203C246.766 190.008 246.432 189.74 246.201 189.4L246.764 188.75C247.229 189.324 247.797 189.611 248.469 189.611C248.996 189.611 249.406 189.463 249.699 189.166C249.996 188.869 250.145 188.451 250.145 187.912V187.367C249.711 187.867 249.119 188.117 248.369 188.117C247.627 188.117 247.025 187.818 246.564 187.221C246.107 186.623 245.879 185.809 245.879 184.777ZM246.969 184.9C246.969 185.615 247.115 186.178 247.408 186.588C247.701 186.994 248.111 187.197 248.639 187.197C249.322 187.197 249.824 186.887 250.145 186.266V183.371C249.812 182.766 249.314 182.463 248.65 182.463C248.123 182.463 247.711 182.668 247.414 183.078C247.117 183.488 246.969 184.096 246.969 184.9ZM253.959 182.428C254.439 181.838 255.064 181.543 255.834 181.543C257.174 181.543 257.85 182.299 257.861 183.811V188H256.777V183.805C256.773 183.348 256.668 183.01 256.461 182.791C256.258 182.572 255.939 182.463 255.506 182.463C255.154 182.463 254.846 182.557 254.58 182.744C254.314 182.932 254.107 183.178 253.959 183.482V188H252.875V179H253.959V182.428ZM260.662 188H259.578V181.66H260.662V188ZM259.49 179.979C259.49 179.803 259.543 179.654 259.648 179.533C259.758 179.412 259.918 179.352 260.129 179.352C260.34 179.352 260.5 179.412 260.609 179.533C260.719 179.654 260.773 179.803 260.773 179.979C260.773 180.154 260.719 180.301 260.609 180.418C260.5 180.535 260.34 180.594 260.129 180.594C259.918 180.594 259.758 180.535 259.648 180.418C259.543 180.301 259.49 180.154 259.49 179.979Z" fill="black"/>
<line x1="32" y1="183.5" x2="47" y2="183.5" stroke="black"/>
<line x1="94" y1="184.5" x2="79" y2="184.5" stroke="black"/>
<line x1="126" y1="183.5" x2="141" y2="183.5" stroke="black"/>
<line x1="173" y1="183.5" x2="188" y2="183.5" stroke="black"/>
<path d="M251.646 169.354C251.842 169.549 252.158 169.549 252.354 169.354L255.536 166.172C255.731 165.976 255.731 165.66 255.536 165.464C255.34 165.269 255.024 165.269 254.828 165.464L252 168.293L249.172 165.464C248.976 165.269 248.66 165.269 248.464 165.464C248.269 165.66 248.269 165.976 248.464 166.172L251.646 169.354ZM251.5 138L251.5 169L252.5 169L252.5 138L251.5 138Z" fill="black"/>
<path d="M243.547 135H242.416V131.057H238.115V135H236.99V126.469H238.115V130.137H242.416V126.469H243.547V135ZM250.367 131.057H246.67V134.08H250.965V135H245.545V126.469H250.906V127.395H246.67V130.137H250.367V131.057ZM257.076 132.773H253.502L252.699 135H251.539L254.797 126.469H255.781L259.045 135H257.891L257.076 132.773ZM253.842 131.848H256.742L255.289 127.857L253.842 131.848ZM260.193 135V126.469H262.602C263.344 126.469 264 126.633 264.57 126.961C265.141 127.289 265.58 127.756 265.889 128.361C266.201 128.967 266.359 129.662 266.363 130.447V130.992C266.363 131.797 266.207 132.502 265.895 133.107C265.586 133.713 265.143 134.178 264.564 134.502C263.99 134.826 263.32 134.992 262.555 135H260.193ZM261.318 127.395V134.08H262.502C263.369 134.08 264.043 133.811 264.523 133.271C265.008 132.732 265.25 131.965 265.25 130.969V130.471C265.25 129.502 265.021 128.75 264.564 128.215C264.111 127.676 263.467 127.402 262.631 127.395H261.318Z" fill="black"/>
<path d="M10.7344 188C10.6719 187.875 10.6211 187.652 10.582 187.332C10.0781 187.855 9.47656 188.117 8.77734 188.117C8.15234 188.117 7.63867 187.941 7.23633 187.59C6.83789 187.234 6.63867 186.785 6.63867 186.242C6.63867 185.582 6.88867 185.07 7.38867 184.707C7.89258 184.34 8.59961 184.156 9.50977 184.156H10.5645V183.658C10.5645 183.279 10.4512 182.979 10.2246 182.756C9.99805 182.529 9.66406 182.416 9.22266 182.416C8.83594 182.416 8.51172 182.514 8.25 182.709C7.98828 182.904 7.85742 183.141 7.85742 183.418H6.76758C6.76758 183.102 6.87891 182.797 7.10156 182.504C7.32812 182.207 7.63281 181.973 8.01562 181.801C8.40234 181.629 8.82617 181.543 9.28711 181.543C10.0176 181.543 10.5898 181.727 11.0039 182.094C11.418 182.457 11.6328 182.959 11.6484 183.6V186.518C11.6484 187.1 11.7227 187.562 11.8711 187.906V188H10.7344ZM8.93555 187.174C9.27539 187.174 9.59766 187.086 9.90234 186.91C10.207 186.734 10.4277 186.506 10.5645 186.225V184.924H9.71484C8.38672 184.924 7.72266 185.312 7.72266 186.09C7.72266 186.43 7.83594 186.695 8.0625 186.887C8.28906 187.078 8.58008 187.174 8.93555 187.174ZM18.7148 184.9C18.7148 185.869 18.4922 186.648 18.0469 187.238C17.6016 187.824 17.0039 188.117 16.2539 188.117C15.4531 188.117 14.834 187.834 14.3965 187.268L14.3438 188H13.3477V179H14.4316V182.357C14.8691 181.814 15.4727 181.543 16.2422 181.543C17.0117 181.543 17.6152 181.834 18.0527 182.416C18.4941 182.998 18.7148 183.795 18.7148 184.807V184.9ZM17.6309 184.777C17.6309 184.039 17.4883 183.469 17.2031 183.066C16.918 182.664 16.5078 182.463 15.9727 182.463C15.2578 182.463 14.7441 182.795 14.4316 183.459V186.201C14.7637 186.865 15.2812 187.197 15.9844 187.197C16.5039 187.197 16.9082 186.996 17.1973 186.594C17.4863 186.191 17.6309 185.586 17.6309 184.777ZM22.6289 187.232C23.0156 187.232 23.3535 187.115 23.6426 186.881C23.9316 186.646 24.0918 186.354 24.123 186.002H25.1484C25.1289 186.365 25.0039 186.711 24.7734 187.039C24.543 187.367 24.2344 187.629 23.8477 187.824C23.4648 188.02 23.0586 188.117 22.6289 188.117C21.7656 188.117 21.0781 187.83 20.5664 187.256C20.0586 186.678 19.8047 185.889 19.8047 184.889V184.707C19.8047 184.09 19.918 183.541 20.1445 183.061C20.3711 182.58 20.6953 182.207 21.1172 181.941C21.543 181.676 22.0449 181.543 22.623 181.543C23.334 181.543 23.9238 181.756 24.3926 182.182C24.8652 182.607 25.1172 183.16 25.1484 183.84H24.123C24.0918 183.43 23.9355 183.094 23.6543 182.832C23.377 182.566 23.0332 182.434 22.623 182.434C22.0723 182.434 21.6445 182.633 21.3398 183.031C21.0391 183.426 20.8887 183.998 20.8887 184.748V184.953C20.8887 185.684 21.0391 186.246 21.3398 186.641C21.6406 187.035 22.0703 187.232 22.6289 187.232Z" fill="black"/>
<path d="M280.705 77.5956L280.43 78.0131L280.43 78.0131L280.705 77.5956ZM285.276 181.171L284.965 180.78L284.965 180.78L285.276 181.171ZM281.462 183.746C281.431 184.02 281.628 184.268 281.902 184.3L286.372 184.814C286.647 184.846 286.895 184.649 286.926 184.375C286.958 184.101 286.761 183.853 286.487 183.821L282.513 183.364L282.97 179.39C283.002 179.116 282.805 178.868 282.531 178.836C282.257 178.804 282.009 179.001 281.977 179.275L281.462 183.746ZM253.725 60.4175L280.43 78.0131L280.981 77.1781L254.275 59.5824L253.725 60.4175ZM284.965 180.78L281.648 183.411L282.27 184.195L285.586 181.563L284.965 180.78ZM280.43 78.0131C316.526 101.796 318.826 153.91 284.965 180.78L285.586 181.563C319.981 154.27 317.645 101.336 280.981 77.1781L280.43 78.0131Z" fill="black"/>
<path d="M322.562 124.777C322.562 123.789 322.791 123.004 323.248 122.422C323.705 121.836 324.311 121.543 325.064 121.543C325.838 121.543 326.441 121.816 326.875 122.363L326.928 121.66H327.918V127.848C327.918 128.668 327.674 129.314 327.186 129.787C326.701 130.26 326.049 130.496 325.229 130.496C324.771 130.496 324.324 130.398 323.887 130.203C323.449 130.008 323.115 129.74 322.885 129.4L323.447 128.75C323.912 129.324 324.48 129.611 325.152 129.611C325.68 129.611 326.09 129.463 326.383 129.166C326.68 128.869 326.828 128.451 326.828 127.912V127.367C326.395 127.867 325.803 128.117 325.053 128.117C324.311 128.117 323.709 127.818 323.248 127.221C322.791 126.623 322.562 125.809 322.562 124.777ZM323.652 124.9C323.652 125.615 323.799 126.178 324.092 126.588C324.385 126.994 324.795 127.197 325.322 127.197C326.006 127.197 326.508 126.887 326.828 126.266V123.371C326.496 122.766 325.998 122.463 325.334 122.463C324.807 122.463 324.395 122.668 324.098 123.078C323.801 123.488 323.652 124.096 323.652 124.9ZM330.736 128H329.652V121.66H330.736V128ZM329.564 119.979C329.564 119.803 329.617 119.654 329.723 119.533C329.832 119.412 329.992 119.352 330.203 119.352C330.414 119.352 330.574 119.412 330.684 119.533C330.793 119.654 330.848 119.803 330.848 119.979C330.848 120.154 330.793 120.301 330.684 120.418C330.574 120.535 330.414 120.594 330.203 120.594C329.992 120.594 329.832 120.535 329.723 120.418C329.617 120.301 329.564 120.154 329.564 119.979ZM333.947 120.125V121.66H335.131V122.498H333.947V126.43C333.947 126.684 334 126.875 334.105 127.004C334.211 127.129 334.391 127.191 334.645 127.191C334.77 127.191 334.941 127.168 335.16 127.121V128C334.875 128.078 334.598 128.117 334.328 128.117C333.844 128.117 333.479 127.971 333.232 127.678C332.986 127.385 332.863 126.969 332.863 126.43V122.498H331.709V121.66H332.863V120.125H333.947ZM342.443 122.633C342.279 122.605 342.102 122.592 341.91 122.592C341.199 122.592 340.717 122.895 340.463 123.5V128H339.379V121.66H340.434L340.451 122.393C340.807 121.826 341.311 121.543 341.963 121.543C342.174 121.543 342.334 121.57 342.443 121.625V122.633ZM345.959 128.117C345.1 128.117 344.4 127.836 343.861 127.273C343.322 126.707 343.053 125.951 343.053 125.006V124.807C343.053 124.178 343.172 123.617 343.41 123.125C343.652 122.629 343.988 122.242 344.418 121.965C344.852 121.684 345.32 121.543 345.824 121.543C346.648 121.543 347.289 121.814 347.746 122.357C348.203 122.9 348.432 123.678 348.432 124.689V125.141H344.137C344.152 125.766 344.334 126.271 344.682 126.658C345.033 127.041 345.479 127.232 346.018 127.232C346.4 127.232 346.725 127.154 346.99 126.998C347.256 126.842 347.488 126.635 347.688 126.377L348.35 126.893C347.818 127.709 347.021 128.117 345.959 128.117ZM345.824 122.434C345.387 122.434 345.02 122.594 344.723 122.914C344.426 123.23 344.242 123.676 344.172 124.25H347.348V124.168C347.316 123.617 347.168 123.191 346.902 122.891C346.637 122.586 346.277 122.434 345.824 122.434ZM351.701 126.529L353.271 121.66H354.379L352.105 128H351.279L348.982 121.66H350.09L351.701 126.529ZM357.971 128.117C357.111 128.117 356.412 127.836 355.873 127.273C355.334 126.707 355.064 125.951 355.064 125.006V124.807C355.064 124.178 355.184 123.617 355.422 123.125C355.664 122.629 356 122.242 356.43 121.965C356.863 121.684 357.332 121.543 357.836 121.543C358.66 121.543 359.301 121.814 359.758 122.357C360.215 122.9 360.443 123.678 360.443 124.689V125.141H356.148C356.164 125.766 356.346 126.271 356.693 126.658C357.045 127.041 357.49 127.232 358.029 127.232C358.412 127.232 358.736 127.154 359.002 126.998C359.268 126.842 359.5 126.635 359.699 126.377L360.361 126.893C359.83 127.709 359.033 128.117 357.971 128.117ZM357.836 122.434C357.398 122.434 357.031 122.594 356.734 122.914C356.438 123.23 356.254 123.676 356.184 124.25H359.359V124.168C359.328 123.617 359.18 123.191 358.914 122.891C358.648 122.586 358.289 122.434 357.836 122.434ZM364.768 122.633C364.604 122.605 364.426 122.592 364.234 122.592C363.523 122.592 363.041 122.895 362.787 123.5V128H361.703V121.66H362.758L362.775 122.393C363.131 121.826 363.635 121.543 364.287 121.543C364.498 121.543 364.658 121.57 364.768 121.625V122.633ZM367.533 120.125V121.66H368.717V122.498H367.533V126.43C367.533 126.684 367.586 126.875 367.691 127.004C367.797 127.129 367.977 127.191 368.23 127.191C368.355 127.191 368.527 127.168 368.746 127.121V128C368.461 128.078 368.184 128.117 367.914 128.117C367.43 128.117 367.064 127.971 366.818 127.678C366.572 127.385 366.449 126.969 366.449 126.43V122.498H365.295V121.66H366.449V120.125H367.533ZM372.707 124.777C372.707 123.789 372.936 123.004 373.393 122.422C373.85 121.836 374.455 121.543 375.209 121.543C375.982 121.543 376.586 121.816 377.02 122.363L377.072 121.66H378.062V127.848C378.062 128.668 377.818 129.314 377.33 129.787C376.846 130.26 376.193 130.496 375.373 130.496C374.916 130.496 374.469 130.398 374.031 130.203C373.594 130.008 373.26 129.74 373.029 129.4L373.592 128.75C374.057 129.324 374.625 129.611 375.297 129.611C375.824 129.611 376.234 129.463 376.527 129.166C376.824 128.869 376.973 128.451 376.973 127.912V127.367C376.539 127.867 375.947 128.117 375.197 128.117C374.455 128.117 373.854 127.818 373.393 127.221C372.936 126.623 372.707 125.809 372.707 124.777ZM373.797 124.9C373.797 125.615 373.943 126.178 374.236 126.588C374.529 126.994 374.939 127.197 375.467 127.197C376.15 127.197 376.652 126.887 376.973 126.266V123.371C376.641 122.766 376.143 122.463 375.479 122.463C374.951 122.463 374.539 122.668 374.242 123.078C373.945 123.488 373.797 124.096 373.797 124.9ZM380.787 122.428C381.268 121.838 381.893 121.543 382.662 121.543C384.002 121.543 384.678 122.299 384.689 123.811V128H383.605V123.805C383.602 123.348 383.496 123.01 383.289 122.791C383.086 122.572 382.768 122.463 382.334 122.463C381.982 122.463 381.674 122.557 381.408 122.744C381.143 122.932 380.936 123.178 380.787 123.482V128H379.703V119H380.787V122.428ZM387.49 128H386.406V121.66H387.49V128ZM386.318 119.979C386.318 119.803 386.371 119.654 386.477 119.533C386.586 119.412 386.746 119.352 386.957 119.352C387.168 119.352 387.328 119.412 387.438 119.533C387.547 119.654 387.602 119.803 387.602 119.979C387.602 120.154 387.547 120.301 387.438 120.418C387.328 120.535 387.168 120.594 386.957 120.594C386.746 120.594 386.586 120.535 386.477 120.418C386.371 120.301 386.318 120.154 386.318 119.979Z" fill="black"/>
</svg>
