<svg width="482" height="231" viewBox="0 0 482 231" fill="none" xmlns="http://www.w3.org/2000/svg">
<circle cx="83" cy="161" r="15.5" fill="#C4C4C4" stroke="black"/>
<circle cx="224" cy="161" r="15.5" fill="#C4C4C4" stroke="black"/>
<circle cx="177" cy="161" r="15.5" fill="#C4C4C4" stroke="black"/>
<circle cx="130" cy="161" r="15.5" fill="#C4C4C4" stroke="black"/>
<circle cx="271" cy="161" r="15.5" fill="#FF8383" stroke="black"/>
<circle cx="321" cy="161" r="15.5" fill="#FF8383" stroke="black"/>
<line x1="99" y1="160.5" x2="114" y2="160.5" stroke="black"/>
<line x1="161" y1="161.5" x2="146" y2="161.5" stroke="black"/>
<line x1="193" y1="160.5" x2="208" y2="160.5" stroke="black"/>
<line x1="240" y1="160.5" x2="255" y2="160.5" stroke="black"/>
<line x1="287" y1="160.5" x2="305" y2="160.5" stroke="black"/>
<circle cx="271" cy="215" r="15.5" fill="#8EA0FF" stroke="black"/>
<circle cx="371" cy="213" r="15.5" fill="#8EA0FF" stroke="black"/>
<circle cx="371" cy="161" r="15.5" fill="#8EA0FF" stroke="black"/>
<circle cx="321" cy="215" r="15.5" fill="#8EA0FF" stroke="black"/>
<path d="M223.982 176L223.982 180.279C223.982 198.347 237.147 213.721 255 216.5V216.5" stroke="black"/>
<line x1="286" y1="214.5" x2="305" y2="214.5" stroke="black"/>
<line x1="337" y1="214.5" x2="355" y2="214.5" stroke="black"/>
<circle cx="83" cy="48" r="15.5" fill="#C4C4C4" stroke="black"/>
<circle cx="224" cy="48" r="15.5" fill="#C4C4C4" stroke="black"/>
<circle cx="177" cy="48" r="15.5" fill="#C4C4C4" stroke="black"/>
<circle cx="130" cy="48" r="15.5" fill="#C4C4C4" stroke="black"/>
<circle cx="271" cy="48" r="15.5" fill="#FF8383" stroke="black"/>
<circle cx="321" cy="48" r="15.5" fill="#FF8383" stroke="black"/>
<line x1="99" y1="47.5" x2="114" y2="47.5" stroke="black"/>
<line x1="161" y1="48.5" x2="146" y2="48.5" stroke="black"/>
<line x1="193" y1="47.5" x2="208" y2="47.5" stroke="black"/>
<line x1="240" y1="47.5" x2="255" y2="47.5" stroke="black"/>
<line x1="287" y1="47.5" x2="305" y2="47.5" stroke="black"/>
<circle cx="271" cy="102" r="15.5" fill="#8EA0FF" stroke="black"/>
<circle cx="371" cy="102" r="15.5" fill="#8EA0FF" stroke="black"/>
<circle cx="321" cy="102" r="15.5" fill="#8EA0FF" stroke="black"/>
<path d="M223.982 63L223.982 67.279C223.982 85.3471 237.147 100.721 255 103.5V103.5" stroke="black"/>
<line x1="286" y1="101.5" x2="305" y2="101.5" stroke="black"/>
<line x1="337" y1="101.5" x2="355" y2="101.5" stroke="black"/>
<path d="M34.335 55.9616L33.9407 55.6541L33.9407 55.6541L34.335 55.9616ZM32.9295 145.099L33.3333 144.804L33.3333 144.804L32.9295 145.099ZM45.9229 163.494C46.1958 163.537 46.4515 163.35 46.494 163.077L47.1875 158.631C47.23 158.358 47.0433 158.102 46.7705 158.06C46.4977 158.017 46.242 158.204 46.1994 158.477L45.583 162.429L41.6308 161.813C41.358 161.77 41.1023 161.957 41.0597 162.229C41.0172 162.502 41.2039 162.758 41.4767 162.801L45.9229 163.494ZM45.6057 40.6926L33.9407 55.6541L34.7294 56.269L46.3943 41.3074L45.6057 40.6926ZM32.5257 145.394L45.5962 163.295L46.4038 162.705L33.3333 144.804L32.5257 145.394ZM33.9407 55.6541C13.4818 81.8949 12.9042 118.521 32.5257 145.394L33.3333 144.804C13.9752 118.292 14.545 82.1576 34.7294 56.269L33.9407 55.6541Z" fill="black"/>
<path d="M44.5625 105.777C44.5625 104.789 44.791 104.004 45.248 103.422C45.7051 102.836 46.3105 102.543 47.0645 102.543C47.8379 102.543 48.4414 102.816 48.875 103.363L48.9277 102.66H49.918V108.848C49.918 109.668 49.6738 110.314 49.1855 110.787C48.7012 111.26 48.0488 111.496 47.2285 111.496C46.7715 111.496 46.3242 111.398 45.8867 111.203C45.4492 111.008 45.1152 110.74 44.8848 110.4L45.4473 109.75C45.9121 110.324 46.4805 110.611 47.1523 110.611C47.6797 110.611 48.0898 110.463 48.3828 110.166C48.6797 109.869 48.8281 109.451 48.8281 108.912V108.367C48.3945 108.867 47.8027 109.117 47.0527 109.117C46.3105 109.117 45.709 108.818 45.248 108.221C44.791 107.623 44.5625 106.809 44.5625 105.777ZM45.6523 105.9C45.6523 106.615 45.7988 107.178 46.0918 107.588C46.3848 107.994 46.7949 108.197 47.3223 108.197C48.0059 108.197 48.5078 107.887 48.8281 107.266V104.371C48.4961 103.766 47.998 103.463 47.334 103.463C46.8066 103.463 46.3945 103.668 46.0977 104.078C45.8008 104.488 45.6523 105.096 45.6523 105.9ZM52.7363 109H51.6523V102.66H52.7363V109ZM51.5645 100.979C51.5645 100.803 51.6172 100.654 51.7227 100.533C51.832 100.412 51.9922 100.352 52.2031 100.352C52.4141 100.352 52.5742 100.412 52.6836 100.533C52.793 100.654 52.8477 100.803 52.8477 100.979C52.8477 101.154 52.793 101.301 52.6836 101.418C52.5742 101.535 52.4141 101.594 52.2031 101.594C51.9922 101.594 51.832 101.535 51.7227 101.418C51.6172 101.301 51.5645 101.154 51.5645 100.979ZM55.9473 101.125V102.66H57.1309V103.498H55.9473V107.43C55.9473 107.684 56 107.875 56.1055 108.004C56.2109 108.129 56.3906 108.191 56.6445 108.191C56.7695 108.191 56.9414 108.168 57.1602 108.121V109C56.875 109.078 56.5977 109.117 56.3281 109.117C55.8438 109.117 55.4785 108.971 55.2324 108.678C54.9863 108.385 54.8633 107.969 54.8633 107.43V103.498H53.709V102.66H54.8633V101.125H55.9473ZM63.9219 108.232C64.3086 108.232 64.6465 108.115 64.9355 107.881C65.2246 107.646 65.3848 107.354 65.416 107.002H66.4414C66.4219 107.365 66.2969 107.711 66.0664 108.039C65.8359 108.367 65.5273 108.629 65.1406 108.824C64.7578 109.02 64.3516 109.117 63.9219 109.117C63.0586 109.117 62.3711 108.83 61.8594 108.256C61.3516 107.678 61.0977 106.889 61.0977 105.889V105.707C61.0977 105.09 61.2109 104.541 61.4375 104.061C61.6641 103.58 61.9883 103.207 62.4102 102.941C62.8359 102.676 63.3379 102.543 63.916 102.543C64.627 102.543 65.2168 102.756 65.6855 103.182C66.1582 103.607 66.4102 104.16 66.4414 104.84H65.416C65.3848 104.43 65.2285 104.094 64.9473 103.832C64.6699 103.566 64.3262 103.434 63.916 103.434C63.3652 103.434 62.9375 103.633 62.6328 104.031C62.332 104.426 62.1816 104.998 62.1816 105.748V105.953C62.1816 106.684 62.332 107.246 62.6328 107.641C62.9336 108.035 63.3633 108.232 63.9219 108.232ZM68.7441 103.428C69.2246 102.838 69.8496 102.543 70.6191 102.543C71.959 102.543 72.6348 103.299 72.6465 104.811V109H71.5625V104.805C71.5586 104.348 71.4531 104.01 71.2461 103.791C71.043 103.572 70.7246 103.463 70.291 103.463C69.9395 103.463 69.6309 103.557 69.3652 103.744C69.0996 103.932 68.8926 104.178 68.7441 104.482V109H67.6602V100H68.7441V103.428ZM76.9004 109.117C76.041 109.117 75.3418 108.836 74.8027 108.273C74.2637 107.707 73.9941 106.951 73.9941 106.006V105.807C73.9941 105.178 74.1133 104.617 74.3516 104.125C74.5938 103.629 74.9297 103.242 75.3594 102.965C75.793 102.684 76.2617 102.543 76.7656 102.543C77.5898 102.543 78.2305 102.814 78.6875 103.357C79.1445 103.9 79.373 104.678 79.373 105.689V106.141H75.0781C75.0938 106.766 75.2754 107.271 75.623 107.658C75.9746 108.041 76.4199 108.232 76.959 108.232C77.3418 108.232 77.666 108.154 77.9316 107.998C78.1973 107.842 78.4297 107.635 78.6289 107.377L79.291 107.893C78.7598 108.709 77.9629 109.117 76.9004 109.117ZM76.7656 103.434C76.3281 103.434 75.9609 103.594 75.6641 103.914C75.3672 104.23 75.1836 104.676 75.1133 105.25H78.2891V105.168C78.2578 104.617 78.1094 104.191 77.8438 103.891C77.5781 103.586 77.2188 103.434 76.7656 103.434ZM83.6973 103.633C83.5332 103.605 83.3555 103.592 83.1641 103.592C82.4531 103.592 81.9707 103.895 81.7168 104.5V109H80.6328V102.66H81.6875L81.7051 103.393C82.0605 102.826 82.5645 102.543 83.2168 102.543C83.4277 102.543 83.5879 102.57 83.6973 102.625V103.633ZM87.7637 103.633C87.5996 103.605 87.4219 103.592 87.2305 103.592C86.5195 103.592 86.0371 103.895 85.7832 104.5V109H84.6992V102.66H85.7539L85.7715 103.393C86.127 102.826 86.6309 102.543 87.2832 102.543C87.4941 102.543 87.6543 102.57 87.7637 102.625V103.633ZM90.9453 107.412L92.4219 102.66H93.582L91.0332 109.979C90.6387 111.033 90.0117 111.561 89.1523 111.561L88.9473 111.543L88.543 111.467V110.588L88.8359 110.611C89.2031 110.611 89.4883 110.537 89.6914 110.389C89.8984 110.24 90.0684 109.969 90.2012 109.574L90.4414 108.93L88.1797 102.66H89.3633L90.9453 107.412ZM96.8105 105.818H93.9512V104.934H96.8105V105.818ZM103.227 105.9C103.227 106.865 103.006 107.643 102.564 108.232C102.123 108.822 101.525 109.117 100.771 109.117C100.002 109.117 99.3965 108.873 98.9551 108.385V111.438H97.8711V102.66H98.8613L98.9141 103.363C99.3555 102.816 99.9688 102.543 100.754 102.543C101.516 102.543 102.117 102.83 102.559 103.404C103.004 103.979 103.227 104.777 103.227 105.801V105.9ZM102.143 105.777C102.143 105.062 101.99 104.498 101.686 104.084C101.381 103.67 100.963 103.463 100.432 103.463C99.7754 103.463 99.2832 103.754 98.9551 104.336V107.365C99.2793 107.943 99.7754 108.232 100.443 108.232C100.963 108.232 101.375 108.027 101.68 107.617C101.988 107.203 102.143 106.59 102.143 105.777ZM105.787 109H104.703V102.66H105.787V109ZM104.615 100.979C104.615 100.803 104.668 100.654 104.773 100.533C104.883 100.412 105.043 100.352 105.254 100.352C105.465 100.352 105.625 100.412 105.734 100.533C105.844 100.654 105.898 100.803 105.898 100.979C105.898 101.154 105.844 101.301 105.734 101.418C105.625 101.535 105.465 101.594 105.254 101.594C105.043 101.594 104.883 101.535 104.773 101.418C104.668 101.301 104.615 101.154 104.615 100.979ZM110.07 108.232C110.457 108.232 110.795 108.115 111.084 107.881C111.373 107.646 111.533 107.354 111.564 107.002H112.59C112.57 107.365 112.445 107.711 112.215 108.039C111.984 108.367 111.676 108.629 111.289 108.824C110.906 109.02 110.5 109.117 110.07 109.117C109.207 109.117 108.52 108.83 108.008 108.256C107.5 107.678 107.246 106.889 107.246 105.889V105.707C107.246 105.09 107.359 104.541 107.586 104.061C107.812 103.58 108.137 103.207 108.559 102.941C108.984 102.676 109.486 102.543 110.064 102.543C110.775 102.543 111.365 102.756 111.834 103.182C112.307 103.607 112.559 104.16 112.59 104.84H111.564C111.533 104.43 111.377 104.094 111.096 103.832C110.818 103.566 110.475 103.434 110.064 103.434C109.514 103.434 109.086 103.633 108.781 104.031C108.48 104.426 108.33 104.998 108.33 105.748V105.953C108.33 106.684 108.48 107.246 108.781 107.641C109.082 108.035 109.512 108.232 110.07 108.232ZM115.578 106.064L114.898 106.773V109H113.814V100H114.898V105.443L115.479 104.746L117.453 102.66H118.771L116.305 105.309L119.059 109H117.787L115.578 106.064ZM124.994 104.975L126.4 102.66H127.666L125.592 105.795L127.73 109H126.477L125.012 106.627L123.547 109H122.287L124.426 105.795L122.352 102.66H123.605L124.994 104.975ZM130.947 104.975L132.354 102.66H133.619L131.545 105.795L133.684 109H132.43L130.965 106.627L129.5 109H128.24L130.379 105.795L128.305 102.66H129.559L130.947 104.975ZM136.9 104.975L138.307 102.66H139.572L137.498 105.795L139.637 109H138.383L136.918 106.627L135.453 109H134.193L136.332 105.795L134.258 102.66H135.512L136.9 104.975Z" fill="black"/>
<path d="M344.646 47.6464C344.451 47.8417 344.451 48.1583 344.646 48.3536L347.828 51.5355C348.024 51.7308 348.34 51.7308 348.536 51.5355C348.731 51.3403 348.731 51.0237 348.536 50.8284L345.707 48L348.536 45.1716C348.731 44.9763 348.731 44.6597 348.536 44.4645C348.34 44.2692 348.024 44.2692 347.828 44.4645L344.646 47.6464ZM381 47.5L345 47.5L345 48.5L381 48.5L381 47.5Z" fill="black"/>
<path d="M384.84 45.6602L384.869 46.3633C385.334 45.8164 385.961 45.543 386.75 45.543C387.637 45.543 388.24 45.8828 388.561 46.5625C388.771 46.2578 389.045 46.0117 389.381 45.8242C389.721 45.6367 390.121 45.543 390.582 45.543C391.973 45.543 392.68 46.2793 392.703 47.752V52H391.619V47.8164C391.619 47.3633 391.516 47.0254 391.309 46.8027C391.102 46.5762 390.754 46.4629 390.266 46.4629C389.863 46.4629 389.529 46.584 389.264 46.8262C388.998 47.0645 388.844 47.3867 388.801 47.793V52H387.711V47.8457C387.711 46.9238 387.26 46.4629 386.357 46.4629C385.646 46.4629 385.16 46.7656 384.898 47.3711V52H383.814V45.6602H384.84ZM398.258 52C398.195 51.875 398.145 51.6523 398.105 51.332C397.602 51.8555 397 52.1172 396.301 52.1172C395.676 52.1172 395.162 51.9414 394.76 51.5898C394.361 51.2344 394.162 50.7852 394.162 50.2422C394.162 49.582 394.412 49.0703 394.912 48.707C395.416 48.3398 396.123 48.1562 397.033 48.1562H398.088V47.6582C398.088 47.2793 397.975 46.9785 397.748 46.7559C397.521 46.5293 397.188 46.416 396.746 46.416C396.359 46.416 396.035 46.5137 395.773 46.709C395.512 46.9043 395.381 47.1406 395.381 47.418H394.291C394.291 47.1016 394.402 46.7969 394.625 46.5039C394.852 46.207 395.156 45.9727 395.539 45.8008C395.926 45.6289 396.35 45.543 396.811 45.543C397.541 45.543 398.113 45.7266 398.527 46.0938C398.941 46.457 399.156 46.959 399.172 47.5996V50.5176C399.172 51.0996 399.246 51.5625 399.395 51.9062V52H398.258ZM396.459 51.1738C396.799 51.1738 397.121 51.0859 397.426 50.9102C397.73 50.7344 397.951 50.5059 398.088 50.2246V48.9238H397.238C395.91 48.9238 395.246 49.3125 395.246 50.0898C395.246 50.4297 395.359 50.6953 395.586 50.8867C395.812 51.0781 396.104 51.1738 396.459 51.1738ZM402.049 52H400.965V45.6602H402.049V52ZM400.877 43.9785C400.877 43.8027 400.93 43.6543 401.035 43.5332C401.145 43.4121 401.305 43.3516 401.516 43.3516C401.727 43.3516 401.887 43.4121 401.996 43.5332C402.105 43.6543 402.16 43.8027 402.16 43.9785C402.16 44.1543 402.105 44.3008 401.996 44.418C401.887 44.5352 401.727 44.5938 401.516 44.5938C401.305 44.5938 401.145 44.5352 401.035 44.418C400.93 44.3008 400.877 44.1543 400.877 43.9785ZM404.814 45.6602L404.85 46.457C405.334 45.8477 405.967 45.543 406.748 45.543C408.088 45.543 408.764 46.2988 408.775 47.8105V52H407.691V47.8047C407.688 47.3477 407.582 47.0098 407.375 46.791C407.172 46.5723 406.854 46.4629 406.42 46.4629C406.068 46.4629 405.76 46.5566 405.494 46.7441C405.229 46.9316 405.021 47.1777 404.873 47.4824V52H403.789V45.6602H404.814Z" fill="black"/>
<path d="M395.646 101.646C395.451 101.842 395.451 102.158 395.646 102.354L398.828 105.536C399.024 105.731 399.34 105.731 399.536 105.536C399.731 105.34 399.731 105.024 399.536 104.828L396.707 102L399.536 99.1716C399.731 98.9763 399.731 98.6597 399.536 98.4645C399.34 98.2692 399.024 98.2692 398.828 98.4645L395.646 101.646ZM432 101.5L396 101.5L396 102.5L432 102.5L432 101.5Z" fill="black"/>
<path d="M434.557 102.777C434.557 101.805 434.787 101.023 435.248 100.434C435.709 99.8398 436.312 99.543 437.059 99.543C437.801 99.543 438.389 99.7969 438.822 100.305V97H439.906V106H438.91L438.857 105.32C438.424 105.852 437.82 106.117 437.047 106.117C436.312 106.117 435.713 105.816 435.248 105.215C434.787 104.613 434.557 103.828 434.557 102.859V102.777ZM435.641 102.9C435.641 103.619 435.789 104.182 436.086 104.588C436.383 104.994 436.793 105.197 437.316 105.197C438.004 105.197 438.506 104.889 438.822 104.271V101.359C438.498 100.762 438 100.463 437.328 100.463C436.797 100.463 436.383 100.668 436.086 101.078C435.789 101.488 435.641 102.096 435.641 102.9ZM444.225 106.117C443.365 106.117 442.666 105.836 442.127 105.273C441.588 104.707 441.318 103.951 441.318 103.006V102.807C441.318 102.178 441.438 101.617 441.676 101.125C441.918 100.629 442.254 100.242 442.684 99.9648C443.117 99.6836 443.586 99.543 444.09 99.543C444.914 99.543 445.555 99.8145 446.012 100.357C446.469 100.9 446.697 101.678 446.697 102.689V103.141H442.402C442.418 103.766 442.6 104.271 442.947 104.658C443.299 105.041 443.744 105.232 444.283 105.232C444.666 105.232 444.99 105.154 445.256 104.998C445.521 104.842 445.754 104.635 445.953 104.377L446.615 104.893C446.084 105.709 445.287 106.117 444.225 106.117ZM444.09 100.434C443.652 100.434 443.285 100.594 442.988 100.914C442.691 101.23 442.508 101.676 442.438 102.25H445.613V102.168C445.582 101.617 445.434 101.191 445.168 100.891C444.902 100.586 444.543 100.434 444.09 100.434ZM449.967 104.529L451.537 99.6602H452.645L450.371 106H449.545L447.248 99.6602H448.355L449.967 104.529ZM456.236 106.117C455.377 106.117 454.678 105.836 454.139 105.273C453.6 104.707 453.33 103.951 453.33 103.006V102.807C453.33 102.178 453.449 101.617 453.688 101.125C453.93 100.629 454.266 100.242 454.695 99.9648C455.129 99.6836 455.598 99.543 456.102 99.543C456.926 99.543 457.566 99.8145 458.023 100.357C458.48 100.9 458.709 101.678 458.709 102.689V103.141H454.414C454.43 103.766 454.611 104.271 454.959 104.658C455.311 105.041 455.756 105.232 456.295 105.232C456.678 105.232 457.002 105.154 457.268 104.998C457.533 104.842 457.766 104.635 457.965 104.377L458.627 104.893C458.096 105.709 457.299 106.117 456.236 106.117ZM456.102 100.434C455.664 100.434 455.297 100.594 455 100.914C454.703 101.23 454.52 101.676 454.449 102.25H457.625V102.168C457.594 101.617 457.445 101.191 457.18 100.891C456.914 100.586 456.555 100.434 456.102 100.434ZM461.146 106H460.062V97H461.146V106ZM462.6 102.771C462.6 102.15 462.721 101.592 462.963 101.096C463.209 100.6 463.549 100.217 463.982 99.9473C464.42 99.6777 464.918 99.543 465.477 99.543C466.34 99.543 467.037 99.8418 467.568 100.439C468.104 101.037 468.371 101.832 468.371 102.824V102.9C468.371 103.518 468.252 104.072 468.014 104.564C467.779 105.053 467.441 105.434 467 105.707C466.562 105.98 466.059 106.117 465.488 106.117C464.629 106.117 463.932 105.818 463.396 105.221C462.865 104.623 462.6 103.832 462.6 102.848V102.771ZM463.689 102.9C463.689 103.604 463.852 104.168 464.176 104.594C464.504 105.02 464.941 105.232 465.488 105.232C466.039 105.232 466.477 105.018 466.801 104.588C467.125 104.154 467.287 103.549 467.287 102.771C467.287 102.076 467.121 101.514 466.789 101.084C466.461 100.65 466.023 100.434 465.477 100.434C464.941 100.434 464.51 100.646 464.182 101.072C463.854 101.498 463.689 102.107 463.689 102.9ZM475.086 102.9C475.086 103.865 474.865 104.643 474.424 105.232C473.982 105.822 473.385 106.117 472.631 106.117C471.861 106.117 471.256 105.873 470.814 105.385V108.438H469.73V99.6602H470.721L470.773 100.363C471.215 99.8164 471.828 99.543 472.613 99.543C473.375 99.543 473.977 99.8301 474.418 100.404C474.863 100.979 475.086 101.777 475.086 102.801V102.9ZM474.002 102.777C474.002 102.062 473.85 101.498 473.545 101.084C473.24 100.67 472.822 100.463 472.291 100.463C471.635 100.463 471.143 100.754 470.814 101.336V104.365C471.139 104.943 471.635 105.232 472.303 105.232C472.822 105.232 473.234 105.027 473.539 104.617C473.848 104.203 474.002 103.59 474.002 102.777Z" fill="black"/>
<path d="M401.646 160.646C401.451 160.842 401.451 161.158 401.646 161.354L404.828 164.536C405.024 164.731 405.34 164.731 405.536 164.536C405.731 164.34 405.731 164.024 405.536 163.828L402.707 161L405.536 158.172C405.731 157.976 405.731 157.66 405.536 157.464C405.34 157.269 405.024 157.269 404.828 157.464L401.646 160.646ZM438 160.5L402 160.5L402 161.5L438 161.5L438 160.5Z" fill="black"/>
<path d="M441.84 158.66L441.869 159.363C442.334 158.816 442.961 158.543 443.75 158.543C444.637 158.543 445.24 158.883 445.561 159.562C445.771 159.258 446.045 159.012 446.381 158.824C446.721 158.637 447.121 158.543 447.582 158.543C448.973 158.543 449.68 159.279 449.703 160.752V165H448.619V160.816C448.619 160.363 448.516 160.025 448.309 159.803C448.102 159.576 447.754 159.463 447.266 159.463C446.863 159.463 446.529 159.584 446.264 159.826C445.998 160.064 445.844 160.387 445.801 160.793V165H444.711V160.846C444.711 159.924 444.26 159.463 443.357 159.463C442.646 159.463 442.16 159.766 441.898 160.371V165H440.814V158.66H441.84ZM455.258 165C455.195 164.875 455.145 164.652 455.105 164.332C454.602 164.855 454 165.117 453.301 165.117C452.676 165.117 452.162 164.941 451.76 164.59C451.361 164.234 451.162 163.785 451.162 163.242C451.162 162.582 451.412 162.07 451.912 161.707C452.416 161.34 453.123 161.156 454.033 161.156H455.088V160.658C455.088 160.279 454.975 159.979 454.748 159.756C454.521 159.529 454.188 159.416 453.746 159.416C453.359 159.416 453.035 159.514 452.773 159.709C452.512 159.904 452.381 160.141 452.381 160.418H451.291C451.291 160.102 451.402 159.797 451.625 159.504C451.852 159.207 452.156 158.973 452.539 158.801C452.926 158.629 453.35 158.543 453.811 158.543C454.541 158.543 455.113 158.727 455.527 159.094C455.941 159.457 456.156 159.959 456.172 160.6V163.518C456.172 164.1 456.246 164.562 456.395 164.906V165H455.258ZM453.459 164.174C453.799 164.174 454.121 164.086 454.426 163.91C454.73 163.734 454.951 163.506 455.088 163.225V161.924H454.238C452.91 161.924 452.246 162.312 452.246 163.09C452.246 163.43 452.359 163.695 452.586 163.887C452.812 164.078 453.104 164.174 453.459 164.174ZM459.049 165H457.965V158.66H459.049V165ZM457.877 156.979C457.877 156.803 457.93 156.654 458.035 156.533C458.145 156.412 458.305 156.352 458.516 156.352C458.727 156.352 458.887 156.412 458.996 156.533C459.105 156.654 459.16 156.803 459.16 156.979C459.16 157.154 459.105 157.301 458.996 157.418C458.887 157.535 458.727 157.594 458.516 157.594C458.305 157.594 458.145 157.535 458.035 157.418C457.93 157.301 457.877 157.154 457.877 156.979ZM461.814 158.66L461.85 159.457C462.334 158.848 462.967 158.543 463.748 158.543C465.088 158.543 465.764 159.299 465.775 160.811V165H464.691V160.805C464.688 160.348 464.582 160.01 464.375 159.791C464.172 159.572 463.854 159.463 463.42 159.463C463.068 159.463 462.76 159.557 462.494 159.744C462.229 159.932 462.021 160.178 461.873 160.482V165H460.789V158.66H461.814Z" fill="black"/>
<path d="M401.646 212.646C401.451 212.842 401.451 213.158 401.646 213.354L404.828 216.536C405.024 216.731 405.34 216.731 405.536 216.536C405.731 216.34 405.731 216.024 405.536 215.828L402.707 213L405.536 210.172C405.731 209.976 405.731 209.66 405.536 209.464C405.34 209.269 405.024 209.269 404.828 209.464L401.646 212.646ZM438 212.5L402 212.5L402 213.5L438 213.5L438 212.5Z" fill="black"/>
<path d="M440.557 213.777C440.557 212.805 440.787 212.023 441.248 211.434C441.709 210.84 442.312 210.543 443.059 210.543C443.801 210.543 444.389 210.797 444.822 211.305V208H445.906V217H444.91L444.857 216.32C444.424 216.852 443.82 217.117 443.047 217.117C442.312 217.117 441.713 216.816 441.248 216.215C440.787 215.613 440.557 214.828 440.557 213.859V213.777ZM441.641 213.9C441.641 214.619 441.789 215.182 442.086 215.588C442.383 215.994 442.793 216.197 443.316 216.197C444.004 216.197 444.506 215.889 444.822 215.271V212.359C444.498 211.762 444 211.463 443.328 211.463C442.797 211.463 442.383 211.668 442.086 212.078C441.789 212.488 441.641 213.096 441.641 213.9ZM450.225 217.117C449.365 217.117 448.666 216.836 448.127 216.273C447.588 215.707 447.318 214.951 447.318 214.006V213.807C447.318 213.178 447.438 212.617 447.676 212.125C447.918 211.629 448.254 211.242 448.684 210.965C449.117 210.684 449.586 210.543 450.09 210.543C450.914 210.543 451.555 210.814 452.012 211.357C452.469 211.9 452.697 212.678 452.697 213.689V214.141H448.402C448.418 214.766 448.6 215.271 448.947 215.658C449.299 216.041 449.744 216.232 450.283 216.232C450.666 216.232 450.99 216.154 451.256 215.998C451.521 215.842 451.754 215.635 451.953 215.377L452.615 215.893C452.084 216.709 451.287 217.117 450.225 217.117ZM450.09 211.434C449.652 211.434 449.285 211.594 448.988 211.914C448.691 212.23 448.508 212.676 448.438 213.25H451.613V213.168C451.582 212.617 451.434 212.191 451.168 211.891C450.902 211.586 450.543 211.434 450.09 211.434ZM455.967 215.529L457.537 210.66H458.645L456.371 217H455.545L453.248 210.66H454.355L455.967 215.529ZM462.236 217.117C461.377 217.117 460.678 216.836 460.139 216.273C459.6 215.707 459.33 214.951 459.33 214.006V213.807C459.33 213.178 459.449 212.617 459.688 212.125C459.93 211.629 460.266 211.242 460.695 210.965C461.129 210.684 461.598 210.543 462.102 210.543C462.926 210.543 463.566 210.814 464.023 211.357C464.48 211.9 464.709 212.678 464.709 213.689V214.141H460.414C460.43 214.766 460.611 215.271 460.959 215.658C461.311 216.041 461.756 216.232 462.295 216.232C462.678 216.232 463.002 216.154 463.268 215.998C463.533 215.842 463.766 215.635 463.965 215.377L464.627 215.893C464.096 216.709 463.299 217.117 462.236 217.117ZM462.102 211.434C461.664 211.434 461.297 211.594 461 211.914C460.703 212.23 460.52 212.676 460.449 213.25H463.625V213.168C463.594 212.617 463.445 212.191 463.18 211.891C462.914 211.586 462.555 211.434 462.102 211.434ZM467.146 217H466.062V208H467.146V217ZM468.6 213.771C468.6 213.15 468.721 212.592 468.963 212.096C469.209 211.6 469.549 211.217 469.982 210.947C470.42 210.678 470.918 210.543 471.477 210.543C472.34 210.543 473.037 210.842 473.568 211.439C474.104 212.037 474.371 212.832 474.371 213.824V213.9C474.371 214.518 474.252 215.072 474.014 215.564C473.779 216.053 473.441 216.434 473 216.707C472.562 216.98 472.059 217.117 471.488 217.117C470.629 217.117 469.932 216.818 469.396 216.221C468.865 215.623 468.6 214.832 468.6 213.848V213.771ZM469.689 213.9C469.689 214.604 469.852 215.168 470.176 215.594C470.504 216.02 470.941 216.232 471.488 216.232C472.039 216.232 472.477 216.018 472.801 215.588C473.125 215.154 473.287 214.549 473.287 213.771C473.287 213.076 473.121 212.514 472.789 212.084C472.461 211.65 472.023 211.434 471.477 211.434C470.941 211.434 470.51 211.646 470.182 212.072C469.854 212.498 469.689 213.107 469.689 213.9ZM481.086 213.9C481.086 214.865 480.865 215.643 480.424 216.232C479.982 216.822 479.385 217.117 478.631 217.117C477.861 217.117 477.256 216.873 476.814 216.385V219.438H475.73V210.66H476.721L476.773 211.363C477.215 210.816 477.828 210.543 478.613 210.543C479.375 210.543 479.977 210.83 480.418 211.404C480.863 211.979 481.086 212.777 481.086 213.801V213.9ZM480.002 213.777C480.002 213.062 479.85 212.498 479.545 212.084C479.24 211.67 478.822 211.463 478.291 211.463C477.635 211.463 477.143 211.754 476.814 212.336V215.365C477.139 215.943 477.635 216.232 478.303 216.232C478.822 216.232 479.234 216.027 479.539 215.617C479.848 215.203 480.002 214.59 480.002 213.777Z" fill="black"/>
<line x1="336" y1="160.5" x2="355" y2="160.5" stroke="black"/>
<path d="M365.947 212.975L367.354 210.66H368.619L366.545 213.795L368.684 217H367.43L365.965 214.627L364.5 217H363.24L365.379 213.795L363.305 210.66H364.559L365.947 212.975ZM371.9 212.975L373.307 210.66H374.572L372.498 213.795L374.637 217H373.383L371.918 214.627L370.453 217H369.193L371.332 213.795L369.258 210.66H370.512L371.9 212.975ZM377.854 212.975L379.26 210.66H380.525L378.451 213.795L380.59 217H379.336L377.871 214.627L376.406 217H375.146L377.285 213.795L375.211 210.66H376.465L377.854 212.975Z" fill="black"/>
<path d="M364.947 160.975L366.354 158.66H367.619L365.545 161.795L367.684 165H366.43L364.965 162.627L363.5 165H362.24L364.379 161.795L362.305 158.66H363.559L364.947 160.975ZM370.9 160.975L372.307 158.66H373.572L371.498 161.795L373.637 165H372.383L370.918 162.627L369.453 165H368.193L370.332 161.795L368.258 158.66H369.512L370.9 160.975ZM376.854 160.975L378.26 158.66H379.525L377.451 161.795L379.59 165H378.336L376.871 162.627L375.406 165H374.146L376.285 161.795L374.211 158.66H375.465L376.854 160.975Z" fill="black"/>
<path d="M364.947 101.975L366.354 99.6602H367.619L365.545 102.795L367.684 106H366.43L364.965 103.627L363.5 106H362.24L364.379 102.795L362.305 99.6602H363.559L364.947 101.975ZM370.9 101.975L372.307 99.6602H373.572L371.498 102.795L373.637 106H372.383L370.918 103.627L369.453 106H368.193L370.332 102.795L368.258 99.6602H369.512L370.9 101.975ZM376.854 101.975L378.26 99.6602H379.525L377.451 102.795L379.59 106H378.336L376.871 103.627L375.406 106H374.146L376.285 102.795L374.211 99.6602H375.465L376.854 101.975Z" fill="black"/>
<path d="M320.646 30.3536C320.842 30.5488 321.158 30.5488 321.354 30.3536L324.536 27.1716C324.731 26.9763 324.731 26.6597 324.536 26.4645C324.34 26.2692 324.024 26.2692 323.828 26.4645L321 29.2929L318.172 26.4645C317.976 26.2692 317.66 26.2692 317.464 26.4645C317.269 26.6597 317.269 26.9763 317.464 27.1716L320.646 30.3536ZM320.5 14L320.5 30L321.5 30L321.5 14L320.5 14Z" fill="black"/>
<path d="M312.547 11H311.416V7.05664H307.115V11H305.99V2.46875H307.115V6.13672H311.416V2.46875H312.547V11ZM319.367 7.05664H315.67V10.0801H319.965V11H314.545V2.46875H319.906V3.39453H315.67V6.13672H319.367V7.05664ZM326.076 8.77344H322.502L321.699 11H320.539L323.797 2.46875H324.781L328.045 11H326.891L326.076 8.77344ZM322.842 7.84766H325.742L324.289 3.85742L322.842 7.84766ZM329.193 11V2.46875H331.602C332.344 2.46875 333 2.63281 333.57 2.96094C334.141 3.28906 334.58 3.75586 334.889 4.36133C335.201 4.9668 335.359 5.66211 335.363 6.44727V6.99219C335.363 7.79688 335.207 8.50195 334.895 9.10742C334.586 9.71289 334.143 10.1777 333.564 10.502C332.99 10.8262 332.32 10.9922 331.555 11H329.193ZM330.318 3.39453V10.0801H331.502C332.369 10.0801 333.043 9.81055 333.523 9.27148C334.008 8.73242 334.25 7.96484 334.25 6.96875V6.4707C334.25 5.50195 334.021 4.75 333.564 4.21484C333.111 3.67578 332.467 3.40234 331.631 3.39453H330.318Z" fill="black"/>
<path d="M383.5 151.492C383.495 151.768 383.715 151.995 383.992 152L388.491 152.076C388.767 152.081 388.995 151.861 388.999 151.585C389.004 151.309 388.784 151.081 388.508 151.076L384.508 151.009L384.576 147.009C384.581 146.733 384.361 146.505 384.085 146.501C383.809 146.496 383.581 146.716 383.576 146.992L383.5 151.492ZM398.652 136.641L383.652 151.141L384.348 151.859L399.348 137.359L398.652 136.641Z" fill="black"/>
<path d="M406.547 134H405.416V130.057H401.115V134H399.99V125.469H401.115V129.137H405.416V125.469H406.547V134ZM413.367 130.057H409.67V133.08H413.965V134H408.545V125.469H413.906V126.395H409.67V129.137H413.367V130.057ZM420.076 131.773H416.502L415.699 134H414.539L417.797 125.469H418.781L422.045 134H420.891L420.076 131.773ZM416.842 130.848H419.742L418.289 126.857L416.842 130.848ZM423.193 134V125.469H425.602C426.344 125.469 427 125.633 427.57 125.961C428.141 126.289 428.58 126.756 428.889 127.361C429.201 127.967 429.359 128.662 429.363 129.447V129.992C429.363 130.797 429.207 131.502 428.895 132.107C428.586 132.713 428.143 133.178 427.564 133.502C426.99 133.826 426.32 133.992 425.555 134H423.193ZM424.318 126.395V133.08H425.502C426.369 133.08 427.043 132.811 427.523 132.271C428.008 131.732 428.25 130.965 428.25 129.969V129.471C428.25 128.502 428.021 127.75 427.564 127.215C427.111 126.676 426.467 126.402 425.631 126.395H424.318Z" fill="black"/>
</svg>
