<svg width="552" height="195" viewBox="0 0 552 195" fill="none" xmlns="http://www.w3.org/2000/svg">
<circle cx="206" cy="126" r="15.5" fill="#C4C4C4" stroke="black"/>
<circle cx="159" cy="126" r="15.5" fill="#C4C4C4" stroke="black"/>
<circle cx="112" cy="126" r="15.5" fill="#C4C4C4" stroke="black"/>
<circle cx="253" cy="126" r="15.5" fill="#FF8383" stroke="black"/>
<circle cx="303" cy="126" r="15.5" fill="#FF8383" stroke="black"/>
<line x1="143" y1="126.5" x2="128" y2="126.5" stroke="black"/>
<line x1="175" y1="125.5" x2="190" y2="125.5" stroke="black"/>
<line x1="222" y1="125.5" x2="237" y2="125.5" stroke="black"/>
<line x1="269" y1="125.5" x2="287" y2="125.5" stroke="black"/>
<circle cx="348.959" cy="178.694" r="15.5" fill="#8EA0FF" stroke="black"/>
<circle cx="448.959" cy="178.694" r="15.5" fill="#8EA0FF" stroke="black"/>
<circle cx="398.959" cy="178.694" r="15.5" fill="#8EA0FF" stroke="black"/>
<path d="M301.941 139.694L301.941 143.973C301.941 162.041 315.106 177.415 332.959 180.194V180.194" stroke="black"/>
<line x1="363.959" y1="178.194" x2="382.959" y2="178.194" stroke="black"/>
<line x1="414.959" y1="178.194" x2="432.959" y2="178.194" stroke="black"/>
<path d="M471.646 178.646C471.451 178.842 471.451 179.158 471.646 179.354L474.828 182.536C475.024 182.731 475.34 182.731 475.536 182.536C475.731 182.34 475.731 182.024 475.536 181.828L472.707 179L475.536 176.172C475.731 175.976 475.731 175.66 475.536 175.464C475.34 175.269 475.024 175.269 474.828 175.464L471.646 178.646ZM508 178.5L472 178.5L472 179.5L508 179.5L508 178.5Z" fill="black"/>
<path d="M510.557 179.777C510.557 178.805 510.787 178.023 511.248 177.434C511.709 176.84 512.312 176.543 513.059 176.543C513.801 176.543 514.389 176.797 514.822 177.305V174H515.906V183H514.91L514.857 182.32C514.424 182.852 513.82 183.117 513.047 183.117C512.312 183.117 511.713 182.816 511.248 182.215C510.787 181.613 510.557 180.828 510.557 179.859V179.777ZM511.641 179.9C511.641 180.619 511.789 181.182 512.086 181.588C512.383 181.994 512.793 182.197 513.316 182.197C514.004 182.197 514.506 181.889 514.822 181.271V178.359C514.498 177.762 514 177.463 513.328 177.463C512.797 177.463 512.383 177.668 512.086 178.078C511.789 178.488 511.641 179.096 511.641 179.9ZM520.225 183.117C519.365 183.117 518.666 182.836 518.127 182.273C517.588 181.707 517.318 180.951 517.318 180.006V179.807C517.318 179.178 517.438 178.617 517.676 178.125C517.918 177.629 518.254 177.242 518.684 176.965C519.117 176.684 519.586 176.543 520.09 176.543C520.914 176.543 521.555 176.814 522.012 177.357C522.469 177.9 522.697 178.678 522.697 179.689V180.141H518.402C518.418 180.766 518.6 181.271 518.947 181.658C519.299 182.041 519.744 182.232 520.283 182.232C520.666 182.232 520.99 182.154 521.256 181.998C521.521 181.842 521.754 181.635 521.953 181.377L522.615 181.893C522.084 182.709 521.287 183.117 520.225 183.117ZM520.09 177.434C519.652 177.434 519.285 177.594 518.988 177.914C518.691 178.23 518.508 178.676 518.438 179.25H521.613V179.168C521.582 178.617 521.434 178.191 521.168 177.891C520.902 177.586 520.543 177.434 520.09 177.434ZM525.967 181.529L527.537 176.66H528.645L526.371 183H525.545L523.248 176.66H524.355L525.967 181.529ZM532.236 183.117C531.377 183.117 530.678 182.836 530.139 182.273C529.6 181.707 529.33 180.951 529.33 180.006V179.807C529.33 179.178 529.449 178.617 529.688 178.125C529.93 177.629 530.266 177.242 530.695 176.965C531.129 176.684 531.598 176.543 532.102 176.543C532.926 176.543 533.566 176.814 534.023 177.357C534.48 177.9 534.709 178.678 534.709 179.689V180.141H530.414C530.43 180.766 530.611 181.271 530.959 181.658C531.311 182.041 531.756 182.232 532.295 182.232C532.678 182.232 533.002 182.154 533.268 181.998C533.533 181.842 533.766 181.635 533.965 181.377L534.627 181.893C534.096 182.709 533.299 183.117 532.236 183.117ZM532.102 177.434C531.664 177.434 531.297 177.594 531 177.914C530.703 178.23 530.52 178.676 530.449 179.25H533.625V179.168C533.594 178.617 533.445 178.191 533.18 177.891C532.914 177.586 532.555 177.434 532.102 177.434ZM537.146 183H536.062V174H537.146V183ZM538.6 179.771C538.6 179.15 538.721 178.592 538.963 178.096C539.209 177.6 539.549 177.217 539.982 176.947C540.42 176.678 540.918 176.543 541.477 176.543C542.34 176.543 543.037 176.842 543.568 177.439C544.104 178.037 544.371 178.832 544.371 179.824V179.9C544.371 180.518 544.252 181.072 544.014 181.564C543.779 182.053 543.441 182.434 543 182.707C542.562 182.98 542.059 183.117 541.488 183.117C540.629 183.117 539.932 182.818 539.396 182.221C538.865 181.623 538.6 180.832 538.6 179.848V179.771ZM539.689 179.9C539.689 180.604 539.852 181.168 540.176 181.594C540.504 182.02 540.941 182.232 541.488 182.232C542.039 182.232 542.477 182.018 542.801 181.588C543.125 181.154 543.287 180.549 543.287 179.771C543.287 179.076 543.121 178.514 542.789 178.084C542.461 177.65 542.023 177.434 541.477 177.434C540.941 177.434 540.51 177.646 540.182 178.072C539.854 178.498 539.689 179.107 539.689 179.9ZM551.086 179.9C551.086 180.865 550.865 181.643 550.424 182.232C549.982 182.822 549.385 183.117 548.631 183.117C547.861 183.117 547.256 182.873 546.814 182.385V185.438H545.73V176.66H546.721L546.773 177.363C547.215 176.816 547.828 176.543 548.613 176.543C549.375 176.543 549.977 176.83 550.418 177.404C550.863 177.979 551.086 178.777 551.086 179.801V179.9ZM550.002 179.777C550.002 179.062 549.85 178.498 549.545 178.084C549.24 177.67 548.822 177.463 548.291 177.463C547.635 177.463 547.143 177.754 546.814 178.336V181.365C547.139 181.943 547.635 182.232 548.303 182.232C548.822 182.232 549.234 182.027 549.539 181.617C549.848 181.203 550.002 180.59 550.002 179.777Z" fill="black"/>
<path d="M327.646 125.646C327.451 125.842 327.451 126.158 327.646 126.354L330.828 129.536C331.024 129.731 331.34 129.731 331.536 129.536C331.731 129.34 331.731 129.024 331.536 128.828L328.707 126L331.536 123.172C331.731 122.976 331.731 122.66 331.536 122.464C331.34 122.269 331.024 122.269 330.828 122.464L327.646 125.646ZM364 125.5L328 125.5L328 126.5L364 126.5L364 125.5Z" fill="black"/>
<path d="M367.84 123.66L367.869 124.363C368.334 123.816 368.961 123.543 369.75 123.543C370.637 123.543 371.24 123.883 371.561 124.562C371.771 124.258 372.045 124.012 372.381 123.824C372.721 123.637 373.121 123.543 373.582 123.543C374.973 123.543 375.68 124.279 375.703 125.752V130H374.619V125.816C374.619 125.363 374.516 125.025 374.309 124.803C374.102 124.576 373.754 124.463 373.266 124.463C372.863 124.463 372.529 124.584 372.264 124.826C371.998 125.064 371.844 125.387 371.801 125.793V130H370.711V125.846C370.711 124.924 370.26 124.463 369.357 124.463C368.646 124.463 368.16 124.766 367.898 125.371V130H366.814V123.66H367.84ZM381.258 130C381.195 129.875 381.145 129.652 381.105 129.332C380.602 129.855 380 130.117 379.301 130.117C378.676 130.117 378.162 129.941 377.76 129.59C377.361 129.234 377.162 128.785 377.162 128.242C377.162 127.582 377.412 127.07 377.912 126.707C378.416 126.34 379.123 126.156 380.033 126.156H381.088V125.658C381.088 125.279 380.975 124.979 380.748 124.756C380.521 124.529 380.188 124.416 379.746 124.416C379.359 124.416 379.035 124.514 378.773 124.709C378.512 124.904 378.381 125.141 378.381 125.418H377.291C377.291 125.102 377.402 124.797 377.625 124.504C377.852 124.207 378.156 123.973 378.539 123.801C378.926 123.629 379.35 123.543 379.811 123.543C380.541 123.543 381.113 123.727 381.527 124.094C381.941 124.457 382.156 124.959 382.172 125.6V128.518C382.172 129.1 382.246 129.562 382.395 129.906V130H381.258ZM379.459 129.174C379.799 129.174 380.121 129.086 380.426 128.91C380.73 128.734 380.951 128.506 381.088 128.225V126.924H380.238C378.91 126.924 378.246 127.312 378.246 128.09C378.246 128.43 378.359 128.695 378.586 128.887C378.812 129.078 379.104 129.174 379.459 129.174ZM385.049 130H383.965V123.66H385.049V130ZM383.877 121.979C383.877 121.803 383.93 121.654 384.035 121.533C384.145 121.412 384.305 121.352 384.516 121.352C384.727 121.352 384.887 121.412 384.996 121.533C385.105 121.654 385.16 121.803 385.16 121.979C385.16 122.154 385.105 122.301 384.996 122.418C384.887 122.535 384.727 122.594 384.516 122.594C384.305 122.594 384.145 122.535 384.035 122.418C383.93 122.301 383.877 122.154 383.877 121.979ZM387.814 123.66L387.85 124.457C388.334 123.848 388.967 123.543 389.748 123.543C391.088 123.543 391.764 124.299 391.775 125.811V130H390.691V125.805C390.688 125.348 390.582 125.01 390.375 124.791C390.172 124.572 389.854 124.463 389.42 124.463C389.068 124.463 388.76 124.557 388.494 124.744C388.229 124.932 388.021 125.178 387.873 125.482V130H386.789V123.66H387.814Z" fill="black"/>
<path d="M327.646 15.6464C327.451 15.8417 327.451 16.1583 327.646 16.3536L330.828 19.5355C331.024 19.7308 331.34 19.7308 331.536 19.5355C331.731 19.3403 331.731 19.0237 331.536 18.8284L328.707 16L331.536 13.1716C331.731 12.9763 331.731 12.6597 331.536 12.4645C331.34 12.2692 331.024 12.2692 330.828 12.4645L327.646 15.6464ZM364 15.5L328 15.5L328 16.5L364 16.5L364 15.5Z" fill="black"/>
<path d="M367.84 13.6602L367.869 14.3633C368.334 13.8164 368.961 13.543 369.75 13.543C370.637 13.543 371.24 13.8828 371.561 14.5625C371.771 14.2578 372.045 14.0117 372.381 13.8242C372.721 13.6367 373.121 13.543 373.582 13.543C374.973 13.543 375.68 14.2793 375.703 15.752V20H374.619V15.8164C374.619 15.3633 374.516 15.0254 374.309 14.8027C374.102 14.5762 373.754 14.4629 373.266 14.4629C372.863 14.4629 372.529 14.584 372.264 14.8262C371.998 15.0645 371.844 15.3867 371.801 15.793V20H370.711V15.8457C370.711 14.9238 370.26 14.4629 369.357 14.4629C368.646 14.4629 368.16 14.7656 367.898 15.3711V20H366.814V13.6602H367.84ZM381.258 20C381.195 19.875 381.145 19.6523 381.105 19.332C380.602 19.8555 380 20.1172 379.301 20.1172C378.676 20.1172 378.162 19.9414 377.76 19.5898C377.361 19.2344 377.162 18.7852 377.162 18.2422C377.162 17.582 377.412 17.0703 377.912 16.707C378.416 16.3398 379.123 16.1562 380.033 16.1562H381.088V15.6582C381.088 15.2793 380.975 14.9785 380.748 14.7559C380.521 14.5293 380.188 14.416 379.746 14.416C379.359 14.416 379.035 14.5137 378.773 14.709C378.512 14.9043 378.381 15.1406 378.381 15.418H377.291C377.291 15.1016 377.402 14.7969 377.625 14.5039C377.852 14.207 378.156 13.9727 378.539 13.8008C378.926 13.6289 379.35 13.543 379.811 13.543C380.541 13.543 381.113 13.7266 381.527 14.0938C381.941 14.457 382.156 14.959 382.172 15.5996V18.5176C382.172 19.0996 382.246 19.5625 382.395 19.9062V20H381.258ZM379.459 19.1738C379.799 19.1738 380.121 19.0859 380.426 18.9102C380.73 18.7344 380.951 18.5059 381.088 18.2246V16.9238H380.238C378.91 16.9238 378.246 17.3125 378.246 18.0898C378.246 18.4297 378.359 18.6953 378.586 18.8867C378.812 19.0781 379.104 19.1738 379.459 19.1738ZM385.049 20H383.965V13.6602H385.049V20ZM383.877 11.9785C383.877 11.8027 383.93 11.6543 384.035 11.5332C384.145 11.4121 384.305 11.3516 384.516 11.3516C384.727 11.3516 384.887 11.4121 384.996 11.5332C385.105 11.6543 385.16 11.8027 385.16 11.9785C385.16 12.1543 385.105 12.3008 384.996 12.418C384.887 12.5352 384.727 12.5938 384.516 12.5938C384.305 12.5938 384.145 12.5352 384.035 12.418C383.93 12.3008 383.877 12.1543 383.877 11.9785ZM387.814 13.6602L387.85 14.457C388.334 13.8477 388.967 13.543 389.748 13.543C391.088 13.543 391.764 14.2988 391.775 15.8105V20H390.691V15.8047C390.688 15.3477 390.582 15.0098 390.375 14.791C390.172 14.5723 389.854 14.4629 389.42 14.4629C389.068 14.4629 388.76 14.5566 388.494 14.7441C388.229 14.9316 388.021 15.1777 387.873 15.4824V20H386.789V13.6602H387.814Z" fill="black"/>
<path d="M374.646 69.6464C374.451 69.8417 374.451 70.1583 374.646 70.3536L377.828 73.5355C378.024 73.7308 378.34 73.7308 378.536 73.5355C378.731 73.3403 378.731 73.0237 378.536 72.8284L375.707 70L378.536 67.1716C378.731 66.9763 378.731 66.6597 378.536 66.4645C378.34 66.2692 378.024 66.2692 377.828 66.4645L374.646 69.6464ZM411 69.5L375 69.5L375 70.5L411 70.5L411 69.5Z" fill="black"/>
<path d="M413.557 70.7773C413.557 69.8047 413.787 69.0234 414.248 68.4336C414.709 67.8398 415.312 67.543 416.059 67.543C416.801 67.543 417.389 67.7969 417.822 68.3047V65H418.906V74H417.91L417.857 73.3203C417.424 73.8516 416.82 74.1172 416.047 74.1172C415.312 74.1172 414.713 73.8164 414.248 73.2148C413.787 72.6133 413.557 71.8281 413.557 70.8594V70.7773ZM414.641 70.9004C414.641 71.6191 414.789 72.1816 415.086 72.5879C415.383 72.9941 415.793 73.1973 416.316 73.1973C417.004 73.1973 417.506 72.8887 417.822 72.2715V69.3594C417.498 68.7617 417 68.4629 416.328 68.4629C415.797 68.4629 415.383 68.668 415.086 69.0781C414.789 69.4883 414.641 70.0957 414.641 70.9004ZM423.225 74.1172C422.365 74.1172 421.666 73.8359 421.127 73.2734C420.588 72.707 420.318 71.9512 420.318 71.0059V70.8066C420.318 70.1777 420.438 69.6172 420.676 69.125C420.918 68.6289 421.254 68.2422 421.684 67.9648C422.117 67.6836 422.586 67.543 423.09 67.543C423.914 67.543 424.555 67.8145 425.012 68.3574C425.469 68.9004 425.697 69.6777 425.697 70.6895V71.1406H421.402C421.418 71.7656 421.6 72.2715 421.947 72.6582C422.299 73.041 422.744 73.2324 423.283 73.2324C423.666 73.2324 423.99 73.1543 424.256 72.998C424.521 72.8418 424.754 72.6348 424.953 72.377L425.615 72.8926C425.084 73.709 424.287 74.1172 423.225 74.1172ZM423.09 68.4336C422.652 68.4336 422.285 68.5938 421.988 68.9141C421.691 69.2305 421.508 69.6758 421.438 70.25H424.613V70.168C424.582 69.6172 424.434 69.1914 424.168 68.8906C423.902 68.5859 423.543 68.4336 423.09 68.4336ZM428.967 72.5293L430.537 67.6602H431.645L429.371 74H428.545L426.248 67.6602H427.355L428.967 72.5293ZM435.236 74.1172C434.377 74.1172 433.678 73.8359 433.139 73.2734C432.6 72.707 432.33 71.9512 432.33 71.0059V70.8066C432.33 70.1777 432.449 69.6172 432.688 69.125C432.93 68.6289 433.266 68.2422 433.695 67.9648C434.129 67.6836 434.598 67.543 435.102 67.543C435.926 67.543 436.566 67.8145 437.023 68.3574C437.48 68.9004 437.709 69.6777 437.709 70.6895V71.1406H433.414C433.43 71.7656 433.611 72.2715 433.959 72.6582C434.311 73.041 434.756 73.2324 435.295 73.2324C435.678 73.2324 436.002 73.1543 436.268 72.998C436.533 72.8418 436.766 72.6348 436.965 72.377L437.627 72.8926C437.096 73.709 436.299 74.1172 435.236 74.1172ZM435.102 68.4336C434.664 68.4336 434.297 68.5938 434 68.9141C433.703 69.2305 433.52 69.6758 433.449 70.25H436.625V70.168C436.594 69.6172 436.445 69.1914 436.18 68.8906C435.914 68.5859 435.555 68.4336 435.102 68.4336ZM440.146 74H439.062V65H440.146V74ZM441.6 70.7715C441.6 70.1504 441.721 69.5918 441.963 69.0957C442.209 68.5996 442.549 68.2168 442.982 67.9473C443.42 67.6777 443.918 67.543 444.477 67.543C445.34 67.543 446.037 67.8418 446.568 68.4395C447.104 69.0371 447.371 69.832 447.371 70.8242V70.9004C447.371 71.5176 447.252 72.0723 447.014 72.5645C446.779 73.0527 446.441 73.4336 446 73.707C445.562 73.9805 445.059 74.1172 444.488 74.1172C443.629 74.1172 442.932 73.8184 442.396 73.2207C441.865 72.623 441.6 71.832 441.6 70.8477V70.7715ZM442.689 70.9004C442.689 71.6035 442.852 72.168 443.176 72.5938C443.504 73.0195 443.941 73.2324 444.488 73.2324C445.039 73.2324 445.477 73.0176 445.801 72.5879C446.125 72.1543 446.287 71.5488 446.287 70.7715C446.287 70.0762 446.121 69.5137 445.789 69.084C445.461 68.6504 445.023 68.4336 444.477 68.4336C443.941 68.4336 443.51 68.6465 443.182 69.0723C442.854 69.498 442.689 70.1074 442.689 70.9004ZM454.086 70.9004C454.086 71.8652 453.865 72.6426 453.424 73.2324C452.982 73.8223 452.385 74.1172 451.631 74.1172C450.861 74.1172 450.256 73.873 449.814 73.3848V76.4375H448.73V67.6602H449.721L449.773 68.3633C450.215 67.8164 450.828 67.543 451.613 67.543C452.375 67.543 452.977 67.8301 453.418 68.4043C453.863 68.9785 454.086 69.7773 454.086 70.8008V70.9004ZM453.002 70.7773C453.002 70.0625 452.85 69.498 452.545 69.084C452.24 68.6699 451.822 68.4629 451.291 68.4629C450.635 68.4629 450.143 68.7539 449.814 69.3359V72.3652C450.139 72.9434 450.635 73.2324 451.303 73.2324C451.822 73.2324 452.234 73.0273 452.539 72.6172C452.848 72.2031 453.002 71.5898 453.002 70.7773Z" fill="black"/>
<circle cx="206" cy="16" r="15.5" fill="#C4C4C4" stroke="black"/>
<circle cx="159" cy="16" r="15.5" fill="#C4C4C4" stroke="black"/>
<circle cx="112" cy="16" r="15.5" fill="#C4C4C4" stroke="black"/>
<circle cx="253" cy="16" r="15.5" fill="#FF8383" stroke="black"/>
<circle cx="303" cy="16" r="15.5" fill="#FF8383" stroke="black"/>
<line x1="143" y1="16.5" x2="128" y2="16.5" stroke="black"/>
<line x1="175" y1="15.5" x2="190" y2="15.5" stroke="black"/>
<line x1="222" y1="15.5" x2="237" y2="15.5" stroke="black"/>
<line x1="269" y1="15.5" x2="287" y2="15.5" stroke="black"/>
<circle cx="253" cy="70" r="15.5" fill="#8EA0FF" stroke="black"/>
<circle cx="353" cy="70" r="15.5" fill="#8EA0FF" stroke="black"/>
<circle cx="303" cy="70" r="15.5" fill="#8EA0FF" stroke="black"/>
<path d="M205.982 31L205.982 35.279C205.982 53.3471 219.147 68.7206 237 71.5V71.5" stroke="black"/>
<line x1="268" y1="69.5" x2="287" y2="69.5" stroke="black"/>
<line x1="319" y1="69.5" x2="337" y2="69.5" stroke="black"/>
<path d="M34.335 25.9616L33.9407 25.6541L33.9407 25.6541L34.335 25.9616ZM32.9295 115.099L33.3333 114.804L33.3333 114.804L32.9295 115.099ZM45.9229 133.494C46.1958 133.537 46.4515 133.35 46.494 133.077L47.1875 128.631C47.23 128.358 47.0433 128.102 46.7705 128.06C46.4977 128.017 46.242 128.204 46.1994 128.477L45.583 132.429L41.6308 131.813C41.358 131.77 41.1023 131.957 41.0597 132.229C41.0172 132.502 41.2039 132.758 41.4767 132.801L45.9229 133.494ZM45.6057 10.6926L33.9407 25.6541L34.7294 26.269L46.3943 11.3074L45.6057 10.6926ZM32.5257 115.394L45.5962 133.295L46.4038 132.705L33.3333 114.804L32.5257 115.394ZM33.9407 25.6541C13.4818 51.8949 12.9042 88.5211 32.5257 115.394L33.3333 114.804C13.9752 88.2921 14.545 52.1576 34.7294 26.269L33.9407 25.6541Z" fill="black"/>
<path d="M44.5625 75.7773C44.5625 74.7891 44.791 74.0039 45.248 73.4219C45.7051 72.8359 46.3105 72.543 47.0645 72.543C47.8379 72.543 48.4414 72.8164 48.875 73.3633L48.9277 72.6602H49.918V78.8477C49.918 79.668 49.6738 80.3145 49.1855 80.7871C48.7012 81.2598 48.0488 81.4961 47.2285 81.4961C46.7715 81.4961 46.3242 81.3984 45.8867 81.2031C45.4492 81.0078 45.1152 80.7402 44.8848 80.4004L45.4473 79.75C45.9121 80.3242 46.4805 80.6113 47.1523 80.6113C47.6797 80.6113 48.0898 80.4629 48.3828 80.166C48.6797 79.8691 48.8281 79.4512 48.8281 78.9121V78.3672C48.3945 78.8672 47.8027 79.1172 47.0527 79.1172C46.3105 79.1172 45.709 78.8184 45.248 78.2207C44.791 77.623 44.5625 76.8086 44.5625 75.7773ZM45.6523 75.9004C45.6523 76.6152 45.7988 77.1777 46.0918 77.5879C46.3848 77.9941 46.7949 78.1973 47.3223 78.1973C48.0059 78.1973 48.5078 77.8867 48.8281 77.2656V74.3711C48.4961 73.7656 47.998 73.4629 47.334 73.4629C46.8066 73.4629 46.3945 73.668 46.0977 74.0781C45.8008 74.4883 45.6523 75.0957 45.6523 75.9004ZM52.7363 79H51.6523V72.6602H52.7363V79ZM51.5645 70.9785C51.5645 70.8027 51.6172 70.6543 51.7227 70.5332C51.832 70.4121 51.9922 70.3516 52.2031 70.3516C52.4141 70.3516 52.5742 70.4121 52.6836 70.5332C52.793 70.6543 52.8477 70.8027 52.8477 70.9785C52.8477 71.1543 52.793 71.3008 52.6836 71.418C52.5742 71.5352 52.4141 71.5938 52.2031 71.5938C51.9922 71.5938 51.832 71.5352 51.7227 71.418C51.6172 71.3008 51.5645 71.1543 51.5645 70.9785ZM55.9473 71.125V72.6602H57.1309V73.498H55.9473V77.4297C55.9473 77.6836 56 77.875 56.1055 78.0039C56.2109 78.1289 56.3906 78.1914 56.6445 78.1914C56.7695 78.1914 56.9414 78.168 57.1602 78.1211V79C56.875 79.0781 56.5977 79.1172 56.3281 79.1172C55.8438 79.1172 55.4785 78.9707 55.2324 78.6777C54.9863 78.3848 54.8633 77.9688 54.8633 77.4297V73.498H53.709V72.6602H54.8633V71.125H55.9473ZM64.4434 73.6328C64.2793 73.6055 64.1016 73.5918 63.9102 73.5918C63.1992 73.5918 62.7168 73.8945 62.4629 74.5V79H61.3789V72.6602H62.4336L62.4512 73.3926C62.8066 72.8262 63.3105 72.543 63.9629 72.543C64.1738 72.543 64.334 72.5703 64.4434 72.625V73.6328ZM67.959 79.1172C67.0996 79.1172 66.4004 78.8359 65.8613 78.2734C65.3223 77.707 65.0527 76.9512 65.0527 76.0059V75.8066C65.0527 75.1777 65.1719 74.6172 65.4102 74.125C65.6523 73.6289 65.9883 73.2422 66.418 72.9648C66.8516 72.6836 67.3203 72.543 67.8242 72.543C68.6484 72.543 69.2891 72.8145 69.7461 73.3574C70.2031 73.9004 70.4316 74.6777 70.4316 75.6895V76.1406H66.1367C66.1523 76.7656 66.334 77.2715 66.6816 77.6582C67.0332 78.041 67.4785 78.2324 68.0176 78.2324C68.4004 78.2324 68.7246 78.1543 68.9902 77.998C69.2559 77.8418 69.4883 77.6348 69.6875 77.377L70.3496 77.8926C69.8184 78.709 69.0215 79.1172 67.959 79.1172ZM67.8242 73.4336C67.3867 73.4336 67.0195 73.5938 66.7227 73.9141C66.4258 74.2305 66.2422 74.6758 66.1719 75.25H69.3477V75.168C69.3164 74.6172 69.168 74.1914 68.9023 73.8906C68.6367 73.5859 68.2773 73.4336 67.8242 73.4336ZM77.0586 75.9004C77.0586 76.8691 76.8359 77.6484 76.3906 78.2383C75.9453 78.8242 75.3477 79.1172 74.5977 79.1172C73.7969 79.1172 73.1777 78.834 72.7402 78.2676L72.6875 79H71.6914V70H72.7754V73.3574C73.2129 72.8145 73.8164 72.543 74.5859 72.543C75.3555 72.543 75.959 72.834 76.3965 73.416C76.8379 73.998 77.0586 74.7949 77.0586 75.8066V75.9004ZM75.9746 75.7773C75.9746 75.0391 75.832 74.4688 75.5469 74.0664C75.2617 73.6641 74.8516 73.4629 74.3164 73.4629C73.6016 73.4629 73.0879 73.7949 72.7754 74.459V77.2012C73.1074 77.8652 73.625 78.1973 74.3281 78.1973C74.8477 78.1973 75.252 77.9961 75.541 77.5938C75.8301 77.1914 75.9746 76.5859 75.9746 75.7773ZM82.3438 79C82.2812 78.875 82.2305 78.6523 82.1914 78.332C81.6875 78.8555 81.0859 79.1172 80.3867 79.1172C79.7617 79.1172 79.248 78.9414 78.8457 78.5898C78.4473 78.2344 78.248 77.7852 78.248 77.2422C78.248 76.582 78.498 76.0703 78.998 75.707C79.502 75.3398 80.209 75.1562 81.1191 75.1562H82.1738V74.6582C82.1738 74.2793 82.0605 73.9785 81.834 73.7559C81.6074 73.5293 81.2734 73.416 80.832 73.416C80.4453 73.416 80.1211 73.5137 79.8594 73.709C79.5977 73.9043 79.4668 74.1406 79.4668 74.418H78.377C78.377 74.1016 78.4883 73.7969 78.7109 73.5039C78.9375 73.207 79.2422 72.9727 79.625 72.8008C80.0117 72.6289 80.4355 72.543 80.8965 72.543C81.627 72.543 82.1992 72.7266 82.6133 73.0938C83.0273 73.457 83.2422 73.959 83.2578 74.5996V77.5176C83.2578 78.0996 83.332 78.5625 83.4805 78.9062V79H82.3438ZM80.5449 78.1738C80.8848 78.1738 81.207 78.0859 81.5117 77.9102C81.8164 77.7344 82.0371 77.5059 82.1738 77.2246V75.9238H81.3242C79.9961 75.9238 79.332 76.3125 79.332 77.0898C79.332 77.4297 79.4453 77.6953 79.6719 77.8867C79.8984 78.0781 80.1895 78.1738 80.5449 78.1738ZM88.6484 77.3184C88.6484 77.0254 88.5371 76.7988 88.3145 76.6387C88.0957 76.4746 87.7109 76.334 87.1602 76.2168C86.6133 76.0996 86.1777 75.959 85.8535 75.7949C85.5332 75.6309 85.2949 75.4355 85.1387 75.209C84.9863 74.9824 84.9102 74.7129 84.9102 74.4004C84.9102 73.8809 85.1289 73.4414 85.5664 73.082C86.0078 72.7227 86.5703 72.543 87.2539 72.543C87.9727 72.543 88.5547 72.7285 89 73.0996C89.4492 73.4707 89.6738 73.9453 89.6738 74.5234H88.584C88.584 74.2266 88.457 73.9707 88.2031 73.7559C87.9531 73.541 87.6367 73.4336 87.2539 73.4336C86.8594 73.4336 86.5508 73.5195 86.3281 73.6914C86.1055 73.8633 85.9941 74.0879 85.9941 74.3652C85.9941 74.627 86.0977 74.8242 86.3047 74.957C86.5117 75.0898 86.8848 75.2168 87.4238 75.3379C87.9668 75.459 88.4062 75.6035 88.7422 75.7715C89.0781 75.9395 89.3262 76.1426 89.4863 76.3809C89.6504 76.6152 89.7324 76.9023 89.7324 77.2422C89.7324 77.8086 89.5059 78.2637 89.0527 78.6074C88.5996 78.9473 88.0117 79.1172 87.2891 79.1172C86.7812 79.1172 86.332 79.0273 85.9414 78.8477C85.5508 78.668 85.2441 78.418 85.0215 78.0977C84.8027 77.7734 84.6934 77.4238 84.6934 77.0488H85.7773C85.7969 77.4121 85.9414 77.7012 86.2109 77.916C86.4844 78.127 86.8438 78.2324 87.2891 78.2324C87.6992 78.2324 88.0273 78.1504 88.2734 77.9863C88.5234 77.8184 88.6484 77.5957 88.6484 77.3184ZM93.7754 79.1172C92.916 79.1172 92.2168 78.8359 91.6777 78.2734C91.1387 77.707 90.8691 76.9512 90.8691 76.0059V75.8066C90.8691 75.1777 90.9883 74.6172 91.2266 74.125C91.4688 73.6289 91.8047 73.2422 92.2344 72.9648C92.668 72.6836 93.1367 72.543 93.6406 72.543C94.4648 72.543 95.1055 72.8145 95.5625 73.3574C96.0195 73.9004 96.248 74.6777 96.248 75.6895V76.1406H91.9531C91.9688 76.7656 92.1504 77.2715 92.498 77.6582C92.8496 78.041 93.2949 78.2324 93.834 78.2324C94.2168 78.2324 94.541 78.1543 94.8066 77.998C95.0723 77.8418 95.3047 77.6348 95.5039 77.377L96.166 77.8926C95.6348 78.709 94.8379 79.1172 93.7754 79.1172ZM93.6406 73.4336C93.2031 73.4336 92.8359 73.5938 92.5391 73.9141C92.2422 74.2305 92.0586 74.6758 91.9883 75.25H95.1641V75.168C95.1328 74.6172 94.9844 74.1914 94.7188 73.8906C94.4531 73.5859 94.0938 73.4336 93.6406 73.4336ZM101.504 72.6602L101.533 73.3633C101.998 72.8164 102.625 72.543 103.414 72.543C104.301 72.543 104.904 72.8828 105.225 73.5625C105.436 73.2578 105.709 73.0117 106.045 72.8242C106.385 72.6367 106.785 72.543 107.246 72.543C108.637 72.543 109.344 73.2793 109.367 74.752V79H108.283V74.8164C108.283 74.3633 108.18 74.0254 107.973 73.8027C107.766 73.5762 107.418 73.4629 106.93 73.4629C106.527 73.4629 106.193 73.584 105.928 73.8262C105.662 74.0645 105.508 74.3867 105.465 74.793V79H104.375V74.8457C104.375 73.9238 103.924 73.4629 103.021 73.4629C102.311 73.4629 101.824 73.7656 101.562 74.3711V79H100.479V72.6602H101.504ZM114.922 79C114.859 78.875 114.809 78.6523 114.77 78.332C114.266 78.8555 113.664 79.1172 112.965 79.1172C112.34 79.1172 111.826 78.9414 111.424 78.5898C111.025 78.2344 110.826 77.7852 110.826 77.2422C110.826 76.582 111.076 76.0703 111.576 75.707C112.08 75.3398 112.787 75.1562 113.697 75.1562H114.752V74.6582C114.752 74.2793 114.639 73.9785 114.412 73.7559C114.186 73.5293 113.852 73.416 113.41 73.416C113.023 73.416 112.699 73.5137 112.438 73.709C112.176 73.9043 112.045 74.1406 112.045 74.418H110.955C110.955 74.1016 111.066 73.7969 111.289 73.5039C111.516 73.207 111.82 72.9727 112.203 72.8008C112.59 72.6289 113.014 72.543 113.475 72.543C114.205 72.543 114.777 72.7266 115.191 73.0938C115.605 73.457 115.82 73.959 115.836 74.5996V77.5176C115.836 78.0996 115.91 78.5625 116.059 78.9062V79H114.922ZM113.123 78.1738C113.463 78.1738 113.785 78.0859 114.09 77.9102C114.395 77.7344 114.615 77.5059 114.752 77.2246V75.9238H113.902C112.574 75.9238 111.91 76.3125 111.91 77.0898C111.91 77.4297 112.023 77.6953 112.25 77.8867C112.477 78.0781 112.768 78.1738 113.123 78.1738ZM118.713 79H117.629V72.6602H118.713V79ZM117.541 70.9785C117.541 70.8027 117.594 70.6543 117.699 70.5332C117.809 70.4121 117.969 70.3516 118.18 70.3516C118.391 70.3516 118.551 70.4121 118.66 70.5332C118.77 70.6543 118.824 70.8027 118.824 70.9785C118.824 71.1543 118.77 71.3008 118.66 71.418C118.551 71.5352 118.391 71.5938 118.18 71.5938C117.969 71.5938 117.809 71.5352 117.699 71.418C117.594 71.3008 117.541 71.1543 117.541 70.9785ZM121.479 72.6602L121.514 73.457C121.998 72.8477 122.631 72.543 123.412 72.543C124.752 72.543 125.428 73.2988 125.439 74.8105V79H124.355V74.8047C124.352 74.3477 124.246 74.0098 124.039 73.791C123.836 73.5723 123.518 73.4629 123.084 73.4629C122.732 73.4629 122.424 73.5566 122.158 73.7441C121.893 73.9316 121.686 74.1777 121.537 74.4824V79H120.453V72.6602H121.479Z" fill="black"/>
<path d="M352.646 53.3536C352.842 53.5488 353.158 53.5488 353.354 53.3536L356.536 50.1716C356.731 49.9763 356.731 49.6597 356.536 49.4645C356.34 49.2692 356.024 49.2692 355.828 49.4645L353 52.2929L350.172 49.4645C349.976 49.2692 349.66 49.2692 349.464 49.4645C349.269 49.6597 349.269 49.9763 349.464 50.1716L352.646 53.3536ZM352.5 37L352.5 53L353.5 53L353.5 37L352.5 37Z" fill="black"/>
<path d="M344.547 34H343.416V30.0566H339.115V34H337.99V25.4688H339.115V29.1367H343.416V25.4688H344.547V34ZM351.367 30.0566H347.67V33.0801H351.965V34H346.545V25.4688H351.906V26.3945H347.67V29.1367H351.367V30.0566ZM358.076 31.7734H354.502L353.699 34H352.539L355.797 25.4688H356.781L360.045 34H358.891L358.076 31.7734ZM354.842 30.8477H357.742L356.289 26.8574L354.842 30.8477ZM361.193 34V25.4688H363.602C364.344 25.4688 365 25.6328 365.57 25.9609C366.141 26.2891 366.58 26.7559 366.889 27.3613C367.201 27.9668 367.359 28.6621 367.363 29.4473V29.9922C367.363 30.7969 367.207 31.502 366.895 32.1074C366.586 32.7129 366.143 33.1777 365.564 33.502C364.99 33.8262 364.32 33.9922 363.555 34H361.193ZM362.318 26.3945V33.0801H363.502C364.369 33.0801 365.043 32.8105 365.523 32.2715C366.008 31.7324 366.25 30.9648 366.25 29.9688V29.4707C366.25 28.502 366.021 27.75 365.564 27.2148C365.111 26.6758 364.467 26.4023 363.631 26.3945H362.318Z" fill="black"/>
<path d="M448.646 160.354C448.842 160.549 449.158 160.549 449.354 160.354L452.536 157.172C452.731 156.976 452.731 156.66 452.536 156.464C452.34 156.269 452.024 156.269 451.828 156.464L449 159.293L446.172 156.464C445.976 156.269 445.66 156.269 445.464 156.464C445.269 156.66 445.269 156.976 445.464 157.172L448.646 160.354ZM448.5 144L448.5 160L449.5 160L449.5 144L448.5 144Z" fill="black"/>
<path d="M440.547 141H439.416V137.057H435.115V141H433.99V132.469H435.115V136.137H439.416V132.469H440.547V141ZM447.367 137.057H443.67V140.08H447.965V141H442.545V132.469H447.906V133.395H443.67V136.137H447.367V137.057ZM454.076 138.773H450.502L449.699 141H448.539L451.797 132.469H452.781L456.045 141H454.891L454.076 138.773ZM450.842 137.848H453.742L452.289 133.857L450.842 137.848ZM457.193 141V132.469H459.602C460.344 132.469 461 132.633 461.57 132.961C462.141 133.289 462.58 133.756 462.889 134.361C463.201 134.967 463.359 135.662 463.363 136.447V136.992C463.363 137.797 463.207 138.502 462.895 139.107C462.586 139.713 462.143 140.178 461.564 140.502C460.99 140.826 460.32 140.992 459.555 141H457.193ZM458.318 133.395V140.08H459.502C460.369 140.08 461.043 139.811 461.523 139.271C462.008 138.732 462.25 137.965 462.25 136.969V136.471C462.25 135.502 462.021 134.75 461.564 134.215C461.111 133.676 460.467 133.402 459.631 133.395H458.318Z" fill="black"/>
</svg>
